<svg xmlns="http://www.w3.org/2000/svg" xmlns:xlink="http://www.w3.org/1999/xlink" viewBox="0 0 428.83 301.99"><defs><style>.cls-1{fill:#8dc63f;}.cls-1,.cls-17,.cls-18,.cls-39,.cls-40,.cls-41,.cls-43{stroke:#231f20;}.cls-1,.cls-17,.cls-18,.cls-39,.cls-40,.cls-41,.cls-42,.cls-43{stroke-miterlimit:10;}.cls-1,.cls-39,.cls-40,.cls-41,.cls-42{stroke-width:3px;}.cls-2{fill:url(#linear-gradient);}.cls-3{fill:url(#linear-gradient-2);}.cls-4{fill:#e5e5e5;}.cls-5{fill:url(#linear-gradient-3);}.cls-6{fill:#b3b3b3;}.cls-7{fill:#9a9a9a;}.cls-8{fill:#d82e29;}.cls-9{fill:#b21f24;}.cls-10{fill:#ef5857;}.cls-11{fill:#961b1e;}.cls-12{fill:#c7c6c5;}.cls-13,.cls-40{fill:#fff;}.cls-14{fill:#ddd;}.cls-15{fill:#c4c4c4;}.cls-16{fill:url(#linear-gradient-4);}.cls-17,.cls-18,.cls-20,.cls-41,.cls-42{fill:none;}.cls-17,.cls-18{stroke-width:5px;}.cls-17{stroke-dasharray:11.82 11.82;}.cls-19,.cls-44{fill:#231f20;}.cls-21{fill:url(#linear-gradient-5);}.cls-22{fill:#4070b7;}.cls-23{fill:url(#linear-gradient-6);}.cls-24{fill:url(#linear-gradient-7);}.cls-25{fill:url(#radial-gradient);}.cls-26{fill:url(#radial-gradient-2);}.cls-27{fill:url(#linear-gradient-8);}.cls-28{fill:url(#radial-gradient-3);}.cls-29{fill:url(#radial-gradient-4);}.cls-30{fill:url(#radial-gradient-5);}.cls-31{fill:url(#radial-gradient-6);}.cls-32{fill:url(#radial-gradient-7);}.cls-33{fill:url(#linear-gradient-9);}.cls-34{fill:url(#linear-gradient-10);}.cls-35{fill:url(#linear-gradient-11);}.cls-36{fill:url(#linear-gradient-12);}.cls-37{fill:url(#linear-gradient-13);}.cls-38{fill:url(#linear-gradient-14);}.cls-39{fill:#90d7f1;}.cls-42{stroke:#2b3990;}.cls-43{fill:#ed1c24;}.cls-44{font-size:47.14px;font-family:MyriadPro-Regular, Myriad Pro;}.cls-45{fill:url(#linear-gradient-15);}.cls-46{fill:url(#linear-gradient-16);}.cls-47{fill:url(#linear-gradient-17);}.cls-48{fill:url(#linear-gradient-18);}</style><linearGradient id="linear-gradient" x1="349.72" y1="2631.13" x2="401.6" y2="2631.13" gradientTransform="matrix(1, 0, 0, -1, 0, 2877.77)" gradientUnits="userSpaceOnUse"><stop offset="0" stop-color="#eaeaea"/><stop offset="0.2" stop-color="#e1e2e1"/><stop offset="0.52" stop-color="#c9c8c8"/><stop offset="0.93" stop-color="#a1a0a0"/><stop offset="1" stop-color="#9b9999"/></linearGradient><linearGradient id="linear-gradient-2" x1="-926.66" y1="1403.63" x2="-925.99" y2="1403.63" gradientTransform="matrix(-211.4, 211.92, -211.92, -211.4, 101989.54, 493302.73)" gradientUnits="userSpaceOnUse"><stop offset="0" stop-color="#fff"/><stop offset="1" stop-color="#010101"/></linearGradient><linearGradient id="linear-gradient-3" x1="-926.68" y1="1403.73" x2="-925.93" y2="1403.73" gradientTransform="matrix(-211.4, 211.92, -211.92, -211.4, 101989.54, 493302.73)" gradientUnits="userSpaceOnUse"><stop offset="0" stop-color="#c7c6c5"/><stop offset="1" stop-color="#010101"/></linearGradient><linearGradient id="linear-gradient-4" x1="-926.65" y1="1403.64" x2="-925.99" y2="1403.64" xlink:href="#linear-gradient-3"/><linearGradient id="linear-gradient-5" x1="61.17" y1="2846.21" x2="130.87" y2="2846.21" gradientTransform="matrix(1, 0, 0, -1, 0, 2877.77)" gradientUnits="userSpaceOnUse"><stop offset="0" stop-color="#d93327"/><stop offset="1" stop-color="#ea4535"/></linearGradient><linearGradient id="linear-gradient-6" x1="90.52" y1="2791.41" x2="125.37" y2="2851.77" gradientTransform="matrix(1, 0, 0, -1, 0, 2877.77)" gradientUnits="userSpaceOnUse"><stop offset="0" stop-color="#fcca35"/><stop offset="1" stop-color="#f9bc15"/></linearGradient><linearGradient id="linear-gradient-7" x1="100.37" y1="2793.38" x2="65.52" y2="2853.74" gradientTransform="matrix(1, 0, 0, -1, 0, 2877.77)" gradientUnits="userSpaceOnUse"><stop offset="0" stop-color="#228e45"/><stop offset="1" stop-color="#36a852"/></linearGradient><radialGradient id="radial-gradient" cx="-15167.5" cy="-8583.36" r="39.88" gradientTransform="matrix(0.76, 0.03, -0.05, 1.12, 11473.93, 10095.3)" gradientUnits="userSpaceOnUse"><stop offset="0.1" stop-color="#fee900"/><stop offset="0.17" stop-color="#fede00"/><stop offset="0.28" stop-color="#febf10"/><stop offset="0.43" stop-color="#f78e1e"/><stop offset="0.77" stop-color="#ee3435"/><stop offset="0.87" stop-color="#e0255b"/><stop offset="0.95" stop-color="#cd2678"/><stop offset="1" stop-color="#c52783"/></radialGradient><radialGradient id="radial-gradient-2" cx="-7894.7" cy="-7943.78" r="69.99" gradientTransform="translate(10058.68 9784.42) scale(1.23)" gradientUnits="userSpaceOnUse"><stop offset="0" stop-color="#39c1d2"/><stop offset="0.22" stop-color="#457abe"/><stop offset="0.26" stop-color="#4275ba"/><stop offset="0.33" stop-color="#3c65af"/><stop offset="0.33" stop-color="#3b64af"/><stop offset="0.44" stop-color="#35459c"/><stop offset="0.52" stop-color="#422d81"/><stop offset="0.57" stop-color="#4c2873"/></radialGradient><linearGradient id="linear-gradient-8" x1="340.71" y1="-77.61" x2="323.78" y2="-133" gradientTransform="translate(0 142.11)" gradientUnits="userSpaceOnUse"><stop offset="0" stop-color="#121643" stop-opacity="0.4"/><stop offset="0.48" stop-color="#20275e" stop-opacity="0.17"/><stop offset="1" stop-color="#263171" stop-opacity="0"/></linearGradient><radialGradient id="radial-gradient-3" cx="-9025.79" cy="-6905.27" r="23.61" gradientTransform="translate(10561.07 9565.36) rotate(5.62) scale(1.23)" gradientUnits="userSpaceOnUse"><stop offset="0" stop-color="#fee900"/><stop offset="0.5" stop-color="#ee3435"/><stop offset="1" stop-color="#c52783"/></radialGradient><radialGradient id="radial-gradient-4" cx="-9027.92" cy="-6927.91" r="39.42" gradientTransform="translate(10561.07 9565.36) rotate(5.62) scale(1.23)" gradientUnits="userSpaceOnUse"><stop offset="0" stop-color="#fee800"/><stop offset="0.16" stop-color="#fcaf17"/><stop offset="0.32" stop-color="#f47925"/><stop offset="0.47" stop-color="#f0522f"/><stop offset="0.62" stop-color="#ef3835"/><stop offset="0.76" stop-color="#ee273c"/><stop offset="0.89" stop-color="#ee223f"/><stop offset="1" stop-color="#ee2040"/></radialGradient><radialGradient id="radial-gradient-5" cx="-9022.35" cy="-6891.37" r="36.18" gradientTransform="translate(10561.07 9565.36) rotate(5.62) scale(1.23)" gradientUnits="userSpaceOnUse"><stop offset="0" stop-color="#ee3435"/><stop offset="0.5" stop-color="#c52783"/><stop offset="0.99" stop-color="#60120c"/></radialGradient><radialGradient id="radial-gradient-6" cx="356.15" cy="-107.25" r="69.19" gradientTransform="translate(0 142.11)" gradientUnits="userSpaceOnUse"><stop offset="0.16" stop-color="#fee900"/><stop offset="0.23" stop-color="#fede00"/><stop offset="0.37" stop-color="#febf10"/><stop offset="0.54" stop-color="#f78e1e"/><stop offset="0.76" stop-color="#ee3435"/><stop offset="0.8" stop-color="#ee2e38"/><stop offset="0.84" stop-color="#e82047"/><stop offset="0.89" stop-color="#ce1c63"/><stop offset="0.94" stop-color="#b41e80"/></radialGradient><radialGradient id="radial-gradient-7" cx="352.19" cy="-139.34" r="78.86" gradientTransform="translate(0 142.11)" gradientUnits="userSpaceOnUse"><stop offset="0.28" stop-color="#fee900"/><stop offset="0.4" stop-color="#fedc00"/><stop offset="0.63" stop-color="#fdba12"/><stop offset="0.86" stop-color="#f7911e"/><stop offset="0.93" stop-color="#f26822"/><stop offset="0.99" stop-color="#f04f29"/></radialGradient><linearGradient id="linear-gradient-9" x1="-9086.44" y1="-6920.23" x2="-9059.28" y2="-6927.15" gradientTransform="translate(10561.07 9565.36) rotate(5.62) scale(1.23)" gradientUnits="userSpaceOnUse"><stop offset="0" stop-color="#c52783" stop-opacity="0.5"/><stop offset="0.47" stop-color="#ee3435" stop-opacity="0.5"/><stop offset="0.49" stop-color="#ef3733" stop-opacity="0.51"/><stop offset="0.68" stop-color="#f47924" stop-opacity="0.72"/><stop offset="0.83" stop-color="#fcb216" stop-opacity="0.87"/><stop offset="0.94" stop-color="#fed604" stop-opacity="0.96"/><stop offset="1" stop-color="#ffe300"/></linearGradient><linearGradient id="linear-gradient-10" x1="221.73" y1="-1540.91" x2="216.91" y2="-1553.28" gradientTransform="translate(-67.89 1526.73) rotate(5.77)" gradientUnits="userSpaceOnUse"><stop offset="0" stop-color="#891b53" stop-opacity="0.6"/><stop offset="1" stop-color="#c52783" stop-opacity="0"/></linearGradient><linearGradient id="linear-gradient-11" x1="-91.42" y1="84.95" x2="-83.09" y2="94.4" gradientTransform="translate(411.24 -33.68) rotate(5.77)" gradientUnits="userSpaceOnUse"><stop offset="0.01" stop-color="#891b53" stop-opacity="0.5"/><stop offset="0.48" stop-color="#ee3435" stop-opacity="0.5"/><stop offset="1" stop-color="#ee3435" stop-opacity="0"/></linearGradient><linearGradient id="linear-gradient-12" x1="-75.41" y1="101.26" x2="-75.41" y2="94.64" gradientTransform="translate(411.24 -33.68) rotate(5.77)" gradientUnits="userSpaceOnUse"><stop offset="0" stop-color="#c52783"/><stop offset="0.08" stop-color="#c52783" stop-opacity="0.81"/><stop offset="0.21" stop-color="#c52783" stop-opacity="0.57"/><stop offset="0.33" stop-color="#c52783" stop-opacity="0.36"/><stop offset="0.45" stop-color="#c52783" stop-opacity="0.2"/><stop offset="0.56" stop-color="#c52783" stop-opacity="0.09"/><stop offset="0.67" stop-color="#c52783" stop-opacity="0.02"/><stop offset="0.77" stop-color="#c52783" stop-opacity="0"/></linearGradient><linearGradient id="linear-gradient-13" x1="347.78" y1="-138.92" x2="374.82" y2="-78.45" gradientTransform="translate(0 142.11)" gradientUnits="userSpaceOnUse"><stop offset="0" stop-color="#fef053"/><stop offset="0.27" stop-color="#feee4d"/><stop offset="0.45" stop-color="#fee645"/><stop offset="0.61" stop-color="#ffd837"/><stop offset="0.76" stop-color="#ffc523"/><stop offset="0.89" stop-color="#fbaa19"/><stop offset="0.9" stop-color="#fba919"/><stop offset="0.95" stop-color="#f9a01b"/><stop offset="1" stop-color="#f7911e"/></linearGradient><linearGradient id="linear-gradient-14" x1="353.12" y1="-104.14" x2="340.31" y2="-69.75" gradientTransform="translate(0 142.11)" gradientUnits="userSpaceOnUse"><stop offset="0" stop-color="#f78e1e"/><stop offset="0.04" stop-color="#f78e1e" stop-opacity="0.86"/><stop offset="0.08" stop-color="#f78e1e" stop-opacity="0.73"/><stop offset="0.13" stop-color="#f78e1e" stop-opacity="0.63"/><stop offset="0.18" stop-color="#f78e1e" stop-opacity="0.56"/><stop offset="0.23" stop-color="#f78e1e" stop-opacity="0.51"/><stop offset="0.28" stop-color="#f78e1e" stop-opacity="0.5"/><stop offset="0.39" stop-color="#f78e1e" stop-opacity="0.48"/><stop offset="0.52" stop-color="#f78e1e" stop-opacity="0.42"/><stop offset="0.68" stop-color="#f78e1e" stop-opacity="0.31"/><stop offset="0.84" stop-color="#f78e1e" stop-opacity="0.17"/><stop offset="1" stop-color="#f78e1e" stop-opacity="0"/></linearGradient><linearGradient id="linear-gradient-15" x1="114.61" y1="2631.69" x2="166.49" y2="2631.69" xlink:href="#linear-gradient"/><linearGradient id="linear-gradient-16" x1="-926.1" y1="1404.19" x2="-925.43" y2="1404.19" xlink:href="#linear-gradient-2"/><linearGradient id="linear-gradient-17" x1="-926.13" y1="1404.28" x2="-925.38" y2="1404.28" xlink:href="#linear-gradient-3"/><linearGradient id="linear-gradient-18" x1="-926.1" y1="1404.19" x2="-925.44" y2="1404.19" xlink:href="#linear-gradient-3"/></defs><g id="Layer_2" data-name="Layer 2"><g id="Layer_1-2" data-name="Layer 1"><g id="browsers"><g id="file"><path class="cls-1" d="M412.18,205.47v72.24a5.62,5.62,0,0,1-5.62,5.62H345.43a5.62,5.62,0,0,1-5.62-5.62V188.38a5.62,5.62,0,0,1,5.62-5.62H390"/><path class="cls-1" d="M412.18,205.47H395.57a5.62,5.62,0,0,1-5.62-5.62V182.76"/><line class="cls-1" x1="412.61" y1="206.46" x2="388.96" y2="182.31"/></g><path id="path16" class="cls-2" d="M391.45,253.8c-3.86-3.86-8.71-6.47-13.06-9.71-2.4-1.78-6.26-4.2-6.82-7.42-.35-2,.65-4,.36-6.11a11.16,11.16,0,0,0-15.3-8.81l4.67,4.66c2.2,2.21,1.88,3.79-.27,5.93-2,2-3.57,1.89-5.5,0l-4.83-4.83A11.16,11.16,0,0,0,358.62,243a10.82,10.82,0,0,0,3.11.19c1.11-.08,2.66-.92,3.67-.64,3.54,1,5.92,4.37,7.91,7.24,3.14,4.51,5.28,9.51,9.26,13.4,3.28,3.2,6.9,6.54,11.09,8.51,3.2,1.5,5.69.36,7.48-2.75,1-1.78.17-3.45-.86-5-2.4-3.74-5.7-7-8.83-10.11m-1.29,9.07a1.54,1.54,0,0,1,0-3.07,1.54,1.54,0,0,1,0,3.07"/><path id="path23" class="cls-3" d="M376.57,242.2l-.49.48c1.37,1.17,2.23,1.08,3.81,2.19l-.34.37a78.21,78.21,0,0,1,16,13.37c2,2.14,4.18,4.47,5.34,7.18.87,2-.15,3.36-1.59,4.82-3.46,3.54-8-.42-11.09-2.82A51.44,51.44,0,0,1,374.13,251l-.42.44c-.83-1.71-.93-3-2-4.3-.87.86,1.05,2.58,1.59,3.67a55.52,55.52,0,0,0,3.21,5.34A50.47,50.47,0,0,0,386,266.82c2.54,2.18,5.35,4.46,8.53,5.63,2.73,1,4.69-.39,6.35-2.52,3.11-4-2-8.71-4.58-11.53a68.91,68.91,0,0,0-8.58-8.33c-3.59-2.79-7.74-4.89-11.17-7.87m-15.75-21.63c-.46,0-5.24.66-4.43,1.42,0,.32,1.14,1.14,1.37,1.36a40.32,40.32,0,0,1,4.33,4.34c1.8,1.8-1.16,5.1-3,5.83-2.07.83-4.25-2.35-5.47-3.58-.27-.26-2.92-3.36-3.27-2.61a11.5,11.5,0,0,0,10.48,16.25c1.76,0,3.49-1,5.13-.47a8.87,8.87,0,0,1,3.83,2.89c1.44-1.44-3.49-3.54-4.76-3.88-.7-.18-2.38.65-3.19.73a10.78,10.78,0,0,1-11-14.75l4.87,4.87c2.22,2.21,4,1.13,5.93-.76,1-1,2-1.89,1.74-3.39a19.25,19.25,0,0,0-2.14-2.46l-4.41-4.4a4.64,4.64,0,0,1,1.09.6l-.66-.65A10.87,10.87,0,0,1,371,228.38c1,2.76,0,4.8.06,7.5.2,1.36,2.32,6.54,3.9,5-1.51-1.33-2.83-2.46-3.15-4.51-.17-1.13.38-2.19.48-3.33a11.37,11.37,0,0,0-.55-4.56,11.63,11.63,0,0,0-11-7.87"/><path id="path25" class="cls-4" d="M351.69,229.26a.76.76,0,0,0-.68-.62,10,10,0,0,0,.93,8.45,9.32,9.32,0,0,1-.25-7.83m19.74,2.6a10.26,10.26,0,0,0-4.17-8.2,10.66,10.66,0,0,0-4-1.82c-.67-.15-5.5-.58-5.49.34,0,1.42,3.35.83,4,.87a10.16,10.16,0,0,1,5.48,2.13A9.75,9.75,0,0,1,370,237.09a10,10,0,0,0,1.47-5.23"/><path id="path27" class="cls-4" d="M362.61,233.51a5.66,5.66,0,0,0,1.76-2.48c.26-1.55-2.07.51-2.18.65a12.92,12.92,0,0,1-2.31,2.42c-.21.15-1.27.56-1.35.83s1,.3,1.13.29a5.36,5.36,0,0,0,2.95-1.71"/><path id="path44" class="cls-5" d="M356.84,222c2.21,2.2,4.74,4.3,6.55,6.86-.2-1.32-1.47-2.27-2.36-3.16-1.21-1.21-2.54-3.11-4.19-3.7"/><path id="path46" class="cls-6" d="M364.17,230.63c.05.22.08.43.12.64.15-.29.11-.5-.12-.64"/><path id="path48" class="cls-4" d="M357.57,235.23c-.42.42-7.13-6.28-6.71-6.71a72,72,0,0,1,6.71,6.71"/><path id="path50" class="cls-4" d="M400.81,267.57c1.48-1.48-14.28-15.46-15.92-16.8-4-3.26-8.58-5.67-12.17-9.42A8,8,0,0,1,371,239s-.18-.74-.09-.69-.16.28-.17.3a51.33,51.33,0,0,0,3.79,3.55c4.43,3.37,9.41,5.82,13.72,9.39a62,62,0,0,1,9.92,10.11c.62.83,3.86,4.67,2.65,5.88"/><path id="path52" class="cls-7" d="M387.56,256.71a5.4,5.4,0,0,0-1.86.33c1.92,0,3.34-.18,5,1.11a10.61,10.61,0,0,1,2.64,3.38c.18.33,1.11,2.74,1.56,2.74,1.07,0-1.37-4.16-1.55-4.37a7.78,7.78,0,0,0-5.8-3.19"/><path id="path54" class="cls-4" d="M389.54,264.61a5.86,5.86,0,0,0,3.09,1c.24,0,2.05-.24,2.17.05.8,1.91-4.81.57-5.22.33a8.77,8.77,0,0,1-4.54-7.19c0-1.6.56-2.6.76-.39a8.31,8.31,0,0,0,3.74,6.24"/><path id="path56" class="cls-8" d="M369.78,247.43c3.61,3.59-5.21,11.17-7.18,13.17-3.05,3.09-6.27,6.52-10.09,8.66-1.26.72-2.89,1.37-4.19.4-4.13-3.1,3.5-10.11,5.39-12.1,3.3-3.48,6.83-7.22,11-9.67,1.44-.84,3.65-1.89,5.07-.46"/><path id="path58" class="cls-9" d="M369.78,247.43c-.22-.17-.45-.33-.68-.49,2.55,3.75-5.6,10.68-7.59,12.71-2.95,3-6,6.2-9.65,8.41-1.2.73-2.88,1.61-4.27.86,3.25,4.68,11.6-4.94,13.5-6.81,2.06-2,12.6-10.79,8.69-14.68"/><path id="path60" class="cls-10" d="M367.31,248.49c.49.49-7.95,7.89-8.45,8.38-2.71,2.68-5.37,5.43-7.9,8.28-.22.24-1.36,1.93-1.85,1.69-2.16-1,5-8,5.46-8.51.92-1,10.61-12,12.74-9.84"/><path id="path62" class="cls-11" d="M355.67,255.19C354,256.9,342,268.1,349,270.29c2.63.83,5.89-2.24,7.7-3.78a92.52,92.52,0,0,0,9.79-9.71c1.77-2,6.3-6.72,3.47-9.55-3.78-3.78-12.19,5.84-14.29,7.94m-7.58,13.93c-2.17-2.15,1.11-5.95,2.44-7.6a77,77,0,0,1,10.83-10.91c1.67-1.38,7-6,8.8-2.27.67,1.39-.34,3.1-1.06,4.24-2.56,4-6.21,7.49-9.64,10.76-1.87,1.78-8.21,9-11.37,5.78"/><path id="path64" class="cls-12" d="M392.93,224.34c2.23,2.23-.71,3.73-2.28,5.3s-3.39,1.86-4.93,3.4l-5.19,5.19-8.42,8.43c-.61.6-1.21,1.21-1.81,1.81a.88.88,0,0,1-1,.17c-1.4-.53-.41-1.71.2-2.32l11.76-11.75,2.87-2.88a8.09,8.09,0,0,0,1.81-2c.33-.76.26-1.83.88-2.45,1.76-1.76,3.6-5.37,6.1-2.92"/><path id="path66" class="cls-13" d="M385.46,231.46c.2.2-15.91,16.34-16.12,16.12s15.74-16.47,16.12-16.12"/><path id="path68" class="cls-7" d="M387.22,231.46c-2.62.67-17.25,17.49-17.55,17.19,2.25-.77,17.19-17.56,17.55-17.19"/><path id="path70" class="cls-4" d="M392.9,225.93c0,1.73-5.49,5.38-5.49,2.37,0-.24,2.27-.59,2.84-1,.2-.13,2.65-1.72,2.65-1.42"/><path id="path72" class="cls-7" d="M391.26,223.48c-.63,0-4.21,3.9-4.16,4,.41.41,3.73-4,4.16-4"/><path id="path74" class="cls-14" d="M391,223.82c.12-.13,1.52,2,1.8,2a2.06,2.06,0,0,0-1.8-2"/><path id="path76" class="cls-15" d="M391,223.82c-.11,0-.23.13,0,0"/><path id="path78" class="cls-7" d="M376.72,244.87l-2.48,2.48c-1.6,1.61-1.2,1.47-.11,3.6l4.44-4.68c-.62-.46-1.24-.92-1.85-1.4m.94-.93a3,3,0,0,0-.25.25c.65.41,1.32.81,2,1.2l.15-.15c-.64-.42-1.28-.85-1.89-1.3"/><path id="path85" class="cls-16" d="M372.89,248.7c-.59.69.44,1.9.82,2.69.9-.57-.41-2.06-.82-2.69m5.14-5.14-.37.38c.7.51,1.53,1.53,2.23.93L378,243.56"/><path id="path87" class="cls-6" d="M377.41,244.19a4,4,0,0,0-.69.68c.93.73,1.89,2,2.68.52-.67-.39-1.34-.79-2-1.2"/><path class="cls-17" d="M178,299.21H14.5a12,12,0,0,1-12-12V181.13a12,12,0,0,1,12-12H178a12,12,0,0,1,12,12V287.21a12,12,0,0,1-12,12Z"/><path class="cls-17" d="M414.33,299.49H250.81a12,12,0,0,1-12-12V181.41a12,12,0,0,1,12-12H414.33a12,12,0,0,1,12,12V287.49a12,12,0,0,1-12,12Z"/><line class="cls-18" x1="97.67" y1="158.43" x2="97.67" y2="114.22"/><polygon class="cls-19" points="107.64 117.14 97.67 99.87 87.69 117.14 107.64 117.14"/><line class="cls-18" x1="337.67" y1="158.43" x2="337.67" y2="114.22"/><polygon class="cls-19" points="347.64 117.14 337.67 99.87 327.69 117.14 347.64 117.14"/><g id="chrome"><circle class="cls-13" cx="96.02" cy="46.65" r="20.12"/><path class="cls-20" d="M61.16,66.78a40.25,40.25,0,1,0,14.73-55h0A40.25,40.25,0,0,0,61.16,66.78ZM113.44,36.6A20.12,20.12,0,1,1,86,29.23h0A20.11,20.11,0,0,1,113.44,36.6Z"/><path class="cls-21" d="M96,26.54h34.85a40.23,40.23,0,0,0-69.7,0L78.59,56.72h0A20.09,20.09,0,0,1,96,26.54Z"/><circle class="cls-22" cx="96.02" cy="46.66" r="15.93"/><path class="cls-23" d="M113.44,56.73,96,86.91a40.24,40.24,0,0,0,34.84-60.37H96v0a20.09,20.09,0,0,1,17.43,30.17Z"/><path class="cls-24" d="M78.59,56.73,61.17,26.55A40.24,40.24,0,0,0,96,86.91l17.43-30.18,0,0a20.1,20.1,0,0,1-34.84,0Z"/></g><g id="ff"><g id="Firefox_-_Large" data-name="Firefox - Large"><path class="cls-25" d="M361,8.1c-2.12,2.47-3.11,8-1,13.64s5.44,4.41,7.49,10.15c2.71,7.57,1.45,17.74,1.45,17.74s3.26,9.43,5.53-.58C379.56,30.23,361,12.73,361,8.1Z"/><path id="_Path_" data-name=" Path " class="cls-26" d="M335.18,86.21A39.45,39.45,0,1,0,296,46.76,39.36,39.36,0,0,0,335.18,86.21Z"/><path class="cls-27" d="M364.6,71.09a23.23,23.23,0,0,1-2.66,1.61,63.18,63.18,0,0,0,3.38-5.58,20.42,20.42,0,0,0,2.23-2.8c.31-.47.65-1.06,1-1.75a37.79,37.79,0,0,0,4.71-17v-.5a22.67,22.67,0,0,0-.51-4.93c0,.12,0,.25.05.38,0-.1,0-.2-.06-.3,0,.18.06.36.09.53.45,3.83.13,7.56-1.47,10.31l-.08.11a34.45,34.45,0,0,0,.19-13.41s-.37-2.24-3.13-9.06a28,28,0,0,0-6.9-9.48c-2.19-2.71-4.17-4.51-5.26-5.67a15.17,15.17,0,0,1-3.64-5.38c-.34-.18-4.7-4.41-5-4.57-1.9,2.95-7.89,12.18-5,20.8a21.47,21.47,0,0,0,8,10.24c.15.17,2,2.21,2.93,6.82.93,4.77.44,8.48-1.46,14-2.24,4.82-8,9.59-13.33,10.07-11.47,1-15.67-5.75-15.67-5.75,4.09,1.63,8.62,1.29,11.38-.4s4.45-3,5.82-2.49,2.42-1,1.45-2.47a7,7,0,0,0-7-3.06c-2.78.46-5.33,2.66-9,.52a6.2,6.2,0,0,1-.69-.44c-.24-.16.78.24.55.06A17.67,17.67,0,0,1,323.13,50c-.06,0,.55.2.49.15-3.4-2.81-3-4.7-2.87-5.89a3.42,3.42,0,0,1,1.75-2.66c.5.27.81.48.81.48s-.21-.44-.33-.67c0,0,.08,0,.12,0,.41.2,1.33.72,1.81,1a2.64,2.64,0,0,1,.82.84s.17-.09,0-.48a2.55,2.55,0,0,0-.86-1.16h0a7.51,7.51,0,0,1,1.05.72,6.16,6.16,0,0,0,.42-2.48,3.43,3.43,0,0,0-.17-1.37c-.13-.28.07-.39.3-.1a2.94,2.94,0,0,0-.19-.66v0c.28-1,6-3.58,6.46-3.88a6,6,0,0,0,1.69-1.84,4.72,4.72,0,0,0,.62-2.31c0-.78-.34-1.3-6.15-1.91a3.92,3.92,0,0,1-3.06-2.37c-.09-.23-.19-.44-.29-.65a6.34,6.34,0,0,1-.23-.74,14,14,0,0,1,4.9-6.79c.13-.11-.51,0-.38-.08a11.25,11.25,0,0,1,1.31-.62c.22-.11-1-.61-2-.49a5,5,0,0,0-1.86.49c.24-.24,1-.55.81-.54a11,11,0,0,0-3.8,1.6,1.07,1.07,0,0,1,.07-.39,6,6,0,0,0-2.37,2.05c0-.16,0-.32,0-.48a8,8,0,0,0-1.17,1.23l0,0a14.05,14.05,0,0,0-8.67-.83c-.54-.54-.8-.14-2-2.83-.08-.16.07.16,0,0-.2-.52.12.69,0,0-2.06,1.62-4.77,3.46-6.07,4.76,0,.06,1.52-.43,0,0-.53.16-.49.47-.57,3.32,0,.22,0,.46,0,.65a18.8,18.8,0,0,0-2,3,46.21,46.21,0,0,0-4.26,11.64,29.16,29.16,0,0,1,2.28-4.45c-1.19,3-2.34,7.79-2.57,15.12a40.65,40.65,0,0,1,1.1-4.48,41.78,41.78,0,0,0,3.08,17.78,43,43,0,0,0,4.51,8.44,40,40,0,0,0,58.94-1Z"/><path class="cls-28" d="M355.79,76.67c14.41-1.67,20.79-16.52,12.6-16.81C361,59.62,349,77.45,355.79,76.67Z"/><path class="cls-29" d="M369.43,56.83c9.91-5.77,7.32-18.23,7.32-18.23a40.63,40.63,0,0,0-6.43,11.53C367.76,57.14,363.47,60.31,369.43,56.83Z"/><path class="cls-30" d="M338,84c13.82,4.41,25.7-6.48,18.37-10.11C349.68,70.65,331.4,82,338,84Z"/><path class="cls-31" d="M370.45,62.12c.34-.48.8-2,1.2-2.67a14.83,14.83,0,0,0,2.45-7.16c1.48-7.36,1.34-10.36.44-15.92a33.22,33.22,0,0,0-6.69-14c-2.84-3.19-.84-2.15-3.6-4.47-2.41-2.68-4.76-5.34-6-6.4-9.23-7.72-9-9.36-8.84-9.64l-.13.15c-.11-.44-.19-.8-.19-.8A24.74,24.74,0,0,0,343,14.68a20.55,20.55,0,0,0,4.33,14.86,33.83,33.83,0,0,0,5.22,5.14h0A20,20,0,0,1,356,46.17a19.42,19.42,0,0,1-19.43,19.42,19.78,19.78,0,0,1-4.34-.49,16,16,0,0,1-9.45-5.26,9.66,9.66,0,0,1-1.19-1.72c4.54,1.63,9.56,1.29,12.61-.39s4.93-3,6.44-2.47,2.67-.95,1.61-2.44a8,8,0,0,0-7.78-3c-3.07.44-5.89,2.63-9.92.51a7.15,7.15,0,0,1-.76-.44c-.27-.16.86.24.6.06a19.57,19.57,0,0,1-2.53-1.51c-.06,0,.61.19.55.14-3.77-2.78-3.3-4.66-3.19-5.84a3.4,3.4,0,0,1,1.93-2.64c.56.27.91.48.91.48l-.37-.66.14,0c.45.2,1.46.71,2,1a2.77,2.77,0,0,1,.92.83s.18-.09,0-.47a2.44,2.44,0,0,0-.95-1.16h0a8,8,0,0,1,1.16.72,5.45,5.45,0,0,0,.47-2.46,3.29,3.29,0,0,0-.19-1.36c-.14-.28.08-.38.34-.1a3.11,3.11,0,0,0-.22-.65v0c.32-1,6.68-3.55,7.14-3.85a6.28,6.28,0,0,0,1.88-1.82,4.35,4.35,0,0,0,.68-2.29c0-.49-.12-.87-1.81-1.24a46.58,46.58,0,0,0-5-.66A4.26,4.26,0,0,1,325,24c-.11-.23-.22-.44-.33-.64a5,5,0,0,1-.25-.74c1.06-2.76,2.95-6.11,5.42-7.73.14-.12-.56,1-.42.91a14.67,14.67,0,0,1,1.45-.61c.24-.11-1.07-.61-2.23-.48a5.79,5.79,0,0,0-2.06.48c.26-.23,1.09-.54.9-.54a13.14,13.14,0,0,0-4.21,1.6.74.74,0,0,1,.08-.39,6.5,6.5,0,0,0-2.63,2,2.5,2.5,0,0,0,0-.47,7.78,7.78,0,0,0-1.29,1.21l0,0a17.16,17.16,0,0,0-9.59-.82,11.38,11.38,0,0,1-2.91-4c-.09-.16-.14.33-.22.17a12.24,12.24,0,0,1-.79-4.6,4.9,4.9,0,0,0-2,2.58c-.17.37-.28.57-.39.78s.12-.68.09-.64a6.56,6.56,0,0,0-.74,1.12,8.82,8.82,0,0,0-.4,1l0,0c0-.14,0-.54,0-.46a22.39,22.39,0,0,0-1.09,2.63,24.89,24.89,0,0,0-1.14,6.6c0,.21,0,.45,0,.65a18,18,0,0,0-2.23,3,42.84,42.84,0,0,0-4.71,11.54,28.9,28.9,0,0,1,2.52-4.43c-1.32,3-2.59,7.73-2.85,15a37.91,37.91,0,0,1,1.23-4.44A37.6,37.6,0,0,0,297.52,62a41.08,41.08,0,0,0,16.24,18.4h0a35.49,35.49,0,0,0,9.47,4.53l1.34.47-.41-.17A42.89,42.89,0,0,0,336.44,87c15.49,0,20.06-6.21,20.06-6.21l0,0c.22-.21.43-.42.63-.65-2.45,2.31-8,2.47-10.11,2.3,3.56-1,5.9-1.92,10.45-3.67.53-.2,1.08-.42,1.64-.67l.17-.09.33-.15a31,31,0,0,0,6.22-3.89,15.62,15.62,0,0,0,6.09-9.57,11.54,11.54,0,0,1-.46,1.09c-1.18,2.52-3.79,4.07-6.63,5.4a60.2,60.2,0,0,0,3.75-5.52C369.47,64.52,369.76,63.08,370.45,62.12Z"/><path class="cls-32" d="M364.89,70.85a29.29,29.29,0,0,0,4.81-7.07C373,56.92,378,45.5,374,33.59,370.89,24.17,366.58,19,361.1,14c-8.89-8.17-11.38-11.82-11.38-14,0,0-10.27,11.45-5.81,23.39s13.57,11.5,19.61,24C370.62,62,357.77,78,347.15,82.49c.65-.15,23.62-5.34,24.82-18.48C371.94,64.25,371.43,67.88,364.89,70.85Z"/><path class="cls-33" d="M335.14,28.25c0-.77-.37-1.3-6.79-1.9-2.64-.24-3.65-2.68-4-3.71a18.3,18.3,0,0,0-1.12,8.09c.14,2,1.5,4.21,2.15,5.49l.21-.26c1.23-1.27,6.37-3.22,6.85-3.5A5.63,5.63,0,0,0,335.14,28.25Z"/><path class="cls-34" d="M306.89,13.84c-.08-.16-.14.33-.21.18a11.6,11.6,0,0,1-.77-4.6,4.84,4.84,0,0,0-2,2.57c-.17.37-.28.58-.38.78a5.17,5.17,0,0,1,.09-.64,6,6,0,0,0-.74,1.1,5.64,5.64,0,0,0-.41,1c0,.12,0-.56,0-.48-2.1,4.05-2.5,10.18-2.27,9.92a20.63,20.63,0,0,1,9.58-5.9,10.83,10.83,0,0,1-2.9-4Z"/><path class="cls-35" d="M323.84,63.7c-6.17-2.63-13.18-6.35-12.92-14.79C311.28,37.8,321.29,40,321.29,40a3.61,3.61,0,0,0-1.75,1.58,4.77,4.77,0,0,0,1,5.38c3.28,3.56-6.74,8.44,8.73,17.66.39.21-3.63-.13-5.45-.92Z"/><path class="cls-36" d="M321.65,58.16c4.37,1.52,9.46,1.26,12.51-.43,2-1.14,4.67-3,6.28-2.51a11,11,0,0,0-3.73-.87,5.62,5.62,0,0,1-.7,0,13,13,0,0,0-1.4.08,14.17,14.17,0,0,1-2.45.49s.77-.34.71-.32c-.42.09-.88.11-1.36.17-.31,0-.57.07-.88.08-9.11.78-16.81-4.93-16.81-4.93-.65,2.21,2.94,6.57,7.83,8.27Z"/><path class="cls-37" d="M364.87,70.91c9.22-9,13.88-20,11.91-32.37a26.16,26.16,0,0,1-2.2,12.79A34,34,0,0,0,372.37,29c-5.09-10.85-13.45-16.56-16.64-18.94-4.84-3.61-6.85-7.28-6.88-8-1.45,3-5.82,13.11-.47,21.85,5,8.19,12.9,10.62,18.43,18.13C377,55.88,364.87,70.91,364.87,70.91Z"/><path class="cls-38" d="M363.55,47.37c-3.22-6.65-7.24-9.55-11-12.69.44.61.55.83.8,1.23A23.52,23.52,0,0,1,358,59.1c-6.75,20.55-33.72,10.88-36.55,8.16,1.15,11.89,21.06,17.59,34,9.88C362.86,70.15,368.83,58.28,363.55,47.37Z"/></g></g><g id="file-2" data-name="file"><path class="cls-39" d="M94.21,205.17v72.24A5.63,5.63,0,0,1,88.58,283H27.46a5.63,5.63,0,0,1-5.63-5.62V188.08a5.63,5.63,0,0,1,5.63-5.62H72"/><path class="cls-40" d="M94.21,205.17H77.6A5.63,5.63,0,0,1,72,199.55V182.46"/><line class="cls-41" x1="94.64" y1="206.16" x2="70.99" y2="182.01"/></g><rect class="cls-42" x="36.47" y="211.93" width="47.11" height="31.53"/><circle class="cls-43" cx="36.47" cy="211.93" r="2.63"/><circle class="cls-43" cx="83.3" cy="211.97" r="2.63"/><circle class="cls-43" cx="84.07" cy="243.38" r="2.63"/><circle class="cls-43" cx="36.69" cy="243.55" r="2.63"/><text class="cls-44" transform="translate(43.42 279.17)">Ω</text><g id="file-3" data-name="file"><path class="cls-39" d="M177.07,204.91v72.24a5.62,5.62,0,0,1-5.62,5.62H110.32a5.62,5.62,0,0,1-5.62-5.62V187.82a5.62,5.62,0,0,1,5.62-5.62h44.52"/><path class="cls-40" d="M177.07,204.91H160.46a5.62,5.62,0,0,1-5.62-5.62V182.2"/><line class="cls-41" x1="177.5" y1="205.89" x2="153.85" y2="181.75"/></g><path id="path16-2" data-name="path16" class="cls-45" d="M156.34,253.24c-3.86-3.86-8.71-6.47-13.06-9.71-2.4-1.79-6.26-4.21-6.82-7.42-.35-2,.65-4,.36-6.12a11.17,11.17,0,0,0-15.3-8.81l4.67,4.67c2.2,2.21,1.88,3.78-.27,5.93-2,2-3.57,1.88-5.5,0l-4.83-4.83a11.15,11.15,0,0,0,11,15.73c1.11-.09,2.66-.92,3.67-.64,3.54,1,5.92,4.36,7.91,7.23,3.14,4.52,5.28,9.52,9.26,13.41,3.28,3.2,6.89,6.54,11.09,8.51,3.2,1.49,5.69.36,7.48-2.76,1-1.78.17-3.44-.86-5-2.4-3.75-5.7-7-8.83-10.11m-1.29,9.07a1.54,1.54,0,0,1,0-3.08,1.54,1.54,0,0,1,0,3.08"/><path id="path23-2" data-name="path23" class="cls-46" d="M141.46,241.63c-.16.17-.32.33-.49.49,1.37,1.16,2.23,1.07,3.81,2.19l-.34.36a78.58,78.58,0,0,1,16,13.38c2,2.14,4.18,4.47,5.34,7.17.87,2-.15,3.36-1.59,4.83-3.46,3.54-8-.42-11.09-2.82A51.47,51.47,0,0,1,139,250.38l-.42.44c-.83-1.7-.93-3-2-4.29-.87.86,1.05,2.58,1.59,3.67a53.56,53.56,0,0,0,3.21,5.34,51,51,0,0,0,9.54,10.72c2.54,2.18,5.35,4.46,8.53,5.63,2.73,1,4.69-.39,6.35-2.52,3.11-4-2-8.72-4.58-11.53a68.91,68.91,0,0,0-8.58-8.33c-3.59-2.8-7.74-4.9-11.17-7.88M125.71,220c-.46,0-5.24.66-4.43,1.41,0,.33,1.14,1.15,1.37,1.37a40.32,40.32,0,0,1,4.33,4.34c1.8,1.8-1.16,5.1-3,5.83-2.07.83-4.25-2.35-5.47-3.58-.27-.26-2.92-3.36-3.27-2.61A11.51,11.51,0,0,0,125.76,243c1.76,0,3.49-1,5.13-.48a8.89,8.89,0,0,1,3.83,2.9c1.44-1.44-3.49-3.54-4.76-3.89-.7-.18-2.38.66-3.19.74a10.8,10.8,0,0,1-11-14.75l4.87,4.87c2.22,2.21,4,1.13,5.93-.76.95-1,2-1.89,1.74-3.39a18.59,18.59,0,0,0-2.14-2.46l-4.41-4.41a4.34,4.34,0,0,1,1.09.61l-.66-.65a10.87,10.87,0,0,1,13.77,6.47c1,2.75,0,4.8,0,7.5.21,1.35,2.33,6.53,3.91,5-1.51-1.33-2.83-2.45-3.15-4.5-.17-1.13.38-2.19.48-3.34a11.34,11.34,0,0,0-.55-4.55,11.64,11.64,0,0,0-11-7.87"/><path id="path25-2" data-name="path25" class="cls-4" d="M116.58,228.7a.79.79,0,0,0-.68-.63,10,10,0,0,0,.93,8.46,9.33,9.33,0,0,1-.25-7.83m19.74,2.6a10.26,10.26,0,0,0-4.17-8.2,10.5,10.5,0,0,0-4-1.82c-.67-.15-5.5-.58-5.49.34,0,1.42,3.35.82,4,.87a10.15,10.15,0,0,1,5.48,2.12,9.76,9.76,0,0,1,2.75,11.92,10.05,10.05,0,0,0,1.47-5.23"/><path id="path27-2" data-name="path27" class="cls-4" d="M127.5,233a5.78,5.78,0,0,0,1.76-2.48c.26-1.55-2.07.51-2.18.65a12.92,12.92,0,0,1-2.31,2.42c-.21.15-1.27.56-1.35.82s1,.3,1.13.29a5.28,5.28,0,0,0,3-1.7"/><path id="path44-2" data-name="path44" class="cls-47" d="M121.73,221.39c2.21,2.21,4.74,4.31,6.55,6.87-.2-1.33-1.47-2.27-2.36-3.16-1.21-1.21-2.54-3.11-4.19-3.71"/><path id="path46-2" data-name="path46" class="cls-6" d="M129.06,230.07l.12.64c.15-.29.11-.51-.12-.64"/><path id="path48-2" data-name="path48" class="cls-4" d="M122.46,234.67c-.42.42-7.14-6.28-6.71-6.71a70.83,70.83,0,0,1,6.71,6.71"/><path id="path50-2" data-name="path50" class="cls-4" d="M165.7,267c1.48-1.49-14.28-15.47-15.92-16.81-4-3.25-8.58-5.67-12.17-9.41a8,8,0,0,1-1.73-2.32s-.19-.74-.09-.69-.16.28-.17.3,3.58,3.38,3.79,3.55c4.43,3.37,9.41,5.82,13.72,9.39a62,62,0,0,1,9.92,10.11c.62.83,3.86,4.67,2.65,5.88"/><path id="path52-2" data-name="path52" class="cls-7" d="M152.45,256.15a5.4,5.4,0,0,0-1.86.33c1.92,0,3.34-.18,5,1.1a10.54,10.54,0,0,1,2.64,3.39c.18.32,1.11,2.74,1.56,2.74,1.07,0-1.37-4.17-1.55-4.38a7.77,7.77,0,0,0-5.8-3.18"/><path id="path54-2" data-name="path54" class="cls-4" d="M154.43,264.05a5.82,5.82,0,0,0,3.09.95c.24,0,2-.23,2.17.06.8,1.91-4.81.57-5.22.33a8.77,8.77,0,0,1-4.54-7.19c0-1.6.56-2.61.76-.39a8.31,8.31,0,0,0,3.74,6.24"/><path id="path56-2" data-name="path56" class="cls-8" d="M134.67,246.86c3.61,3.6-5.21,11.18-7.18,13.18-3,3.09-6.27,6.51-10.09,8.66-1.26.71-2.89,1.37-4.19.39-4.13-3.09,3.5-10.1,5.39-12.09,3.3-3.48,6.83-7.22,11-9.67,1.44-.85,3.65-1.9,5.07-.47"/><path id="path58-2" data-name="path58" class="cls-9" d="M134.67,246.86l-.68-.48c2.55,3.75-5.6,10.68-7.59,12.7-3,3-6,6.21-9.66,8.41-1.19.73-2.87,1.62-4.26.86,3.25,4.69,11.6-4.93,13.49-6.8,2.07-2,12.61-10.8,8.7-14.69"/><path id="path60-2" data-name="path60" class="cls-10" d="M132.2,247.93c.49.49-7.95,7.88-8.45,8.37-2.71,2.69-5.37,5.43-7.9,8.29-.22.24-1.36,1.92-1.85,1.69-2.16-1,5-8,5.46-8.51.92-1,10.61-12,12.74-9.84"/><path id="path62-2" data-name="path62" class="cls-11" d="M120.56,254.62c-1.71,1.72-13.64,12.92-6.67,15.11,2.63.82,5.89-2.25,7.7-3.78a93.49,93.49,0,0,0,9.79-9.71c1.77-2,6.3-6.72,3.47-9.56-3.78-3.78-12.19,5.84-14.29,7.94M113,268.56c-2.17-2.15,1.11-5.95,2.44-7.6a76.5,76.5,0,0,1,10.83-10.91c1.67-1.38,7-6,8.8-2.27.67,1.39-.34,3.09-1.06,4.24-2.56,4-6.21,7.49-9.64,10.76-1.87,1.78-8.21,9-11.37,5.78"/><path id="path64-2" data-name="path64" class="cls-12" d="M157.82,223.78c2.23,2.22-.71,3.72-2.28,5.3s-3.39,1.86-4.93,3.4l-5.19,5.19q-4.2,4.22-8.42,8.42l-1.81,1.82a.89.89,0,0,1-1,.16c-1.39-.52-.4-1.7.21-2.31L146.16,234l2.87-2.88a8,8,0,0,0,1.81-2c.33-.75.26-1.82.87-2.44,1.77-1.76,3.61-5.38,6.11-2.92"/><path id="path66-2" data-name="path66" class="cls-13" d="M150.35,230.89c.2.21-15.91,16.34-16.12,16.13s15.74-16.47,16.12-16.13"/><path id="path68-2" data-name="path68" class="cls-7" d="M152.11,230.89c-2.62.68-17.25,17.49-17.55,17.19,2.25-.77,17.19-17.55,17.55-17.19"/><path id="path70-2" data-name="path70" class="cls-4" d="M157.79,225.37c0,1.73-5.49,5.38-5.49,2.37,0-.24,2.27-.59,2.84-1,.2-.14,2.65-1.73,2.65-1.42"/><path id="path72-2" data-name="path72" class="cls-7" d="M156.15,222.92c-.63,0-4.21,3.9-4.16,3.94.41.42,3.73-3.94,4.16-3.94"/><path id="path74-2" data-name="path74" class="cls-14" d="M155.93,223.26c.12-.13,1.52,2,1.8,2a2,2,0,0,0-1.8-2"/><path id="path76-2" data-name="path76" class="cls-15" d="M155.93,223.26c-.11,0-.23.13,0,0"/><path id="path78-2" data-name="path78" class="cls-7" d="M141.61,244.31l-2.48,2.48c-1.6,1.6-1.2,1.47-.11,3.59l4.44-4.68c-.62-.45-1.24-.92-1.85-1.39m.94-.94-.25.25c.65.42,1.32.82,2,1.21l.15-.16c-.64-.42-1.28-.84-1.89-1.3"/><path id="path85-2" data-name="path85" class="cls-48" d="M137.78,248.14c-.59.68.44,1.9.82,2.68.9-.56-.41-2-.82-2.68m5.14-5.14-.37.37c.7.52,1.53,1.54,2.23.94L142.92,243"/><path id="path87-2" data-name="path87" class="cls-6" d="M142.3,243.62a4.5,4.5,0,0,0-.69.69c.93.72,1.89,2.05,2.68.52-.67-.39-1.34-.79-2-1.21"/><g id="file-4" data-name="file"><path class="cls-1" d="M329.32,205.74V278a5.63,5.63,0,0,1-5.63,5.63H262.57a5.63,5.63,0,0,1-5.63-5.63V188.65a5.63,5.63,0,0,1,5.63-5.63h44.52"/><path class="cls-40" d="M329.32,205.74H312.71a5.62,5.62,0,0,1-5.62-5.63V183"/><line class="cls-41" x1="329.75" y1="206.72" x2="306.1" y2="182.58"/></g><text class="cls-44" transform="translate(278.53 279.73)">Ω</text><path class="cls-42" d="M305,231.66,271.59,244V212.49H318.7Z"/><circle class="cls-43" cx="271.59" cy="212.49" r="2.63"/><circle class="cls-43" cx="318.41" cy="212.54" r="2.63"/><path class="cls-43" d="M307.58,231.66A2.63,2.63,0,1,1,305,229,2.62,2.62,0,0,1,307.58,231.66Z"/><circle class="cls-43" cx="271.8" cy="244.12" r="2.63"/></g></g></g></svg>