<svg xmlns="http://www.w3.org/2000/svg" viewBox="0 0 102.32 102.32"><defs><style>.cls-1{fill:#f15a29;stroke-width:4px;}.cls-1,.cls-2{stroke:#fff;stroke-miterlimit:10;}.cls-2{fill:#fff;}</style></defs><g id="Layer_2" data-name="Layer 2"><g id="Layer_1-2" data-name="Layer 1"><g id="artefact"><rect class="cls-1" x="2" y="2" width="98.32" height="98.32" rx="12"/><path class="cls-2" d="M88.69,52.07a2.73,2.73,0,0,1-1.27-2,2.48,2.48,0,0,1,.81-1.52,9.89,9.89,0,0,0,2.09-4.43,6.29,6.29,0,0,0-1.22-4.32,6.75,6.75,0,0,0-8.39-2.19,9.29,9.29,0,0,0-2.44,1.73c-1.13,1-1,1.23-2.24,2.39a12.16,12.16,0,0,1-3.25,2.44,11.26,11.26,0,0,1-2.24.82,11.94,11.94,0,0,1-2.85.35l-16.12-.25h-1.2l-16.12.25A11.89,11.89,0,0,1,31.4,45a11.26,11.26,0,0,1-2.24-.82,12.16,12.16,0,0,1-3.25-2.44c-1.2-1.16-1.11-1.39-2.24-2.39a9.29,9.29,0,0,0-2.44-1.73,6.75,6.75,0,0,0-8.39,2.19,6.29,6.29,0,0,0-1.22,4.32,9.89,9.89,0,0,0,2.09,4.43,2.48,2.48,0,0,1,.81,1.52,2.73,2.73,0,0,1-1.27,2"/><path class="cls-2" d="M88.69,48a2.75,2.75,0,0,0-1.27,2,2.51,2.51,0,0,0,.81,1.53,9.82,9.82,0,0,1,2.09,4.42,6.32,6.32,0,0,1-1.22,4.33,6.73,6.73,0,0,1-8.39,2.18,9.29,9.29,0,0,1-2.44-1.73c-1.13-1-1-1.22-2.24-2.39a12.38,12.38,0,0,0-3.25-2.44,12.23,12.23,0,0,0-2.24-.81,11.53,11.53,0,0,0-2.85-.36L51.57,55h-1.2l-16.12-.26a11.48,11.48,0,0,0-2.85.36,12.23,12.23,0,0,0-2.24.81,12.38,12.38,0,0,0-3.25,2.44c-1.2,1.17-1.11,1.4-2.24,2.39a9.29,9.29,0,0,1-2.44,1.73,6.73,6.73,0,0,1-8.39-2.18,6.32,6.32,0,0,1-1.22-4.33,9.82,9.82,0,0,1,2.09-4.42A2.51,2.51,0,0,0,14.52,50a2.75,2.75,0,0,0-1.27-2"/></g></g></g></svg>