<svg xmlns="http://www.w3.org/2000/svg" viewBox="0 0 102.32 102.32"><defs><style>.cls-1{fill:#eb4320;stroke:#fff;stroke-miterlimit:10;stroke-width:4px;}.cls-2{fill:#fff;}</style></defs><g id="Layer_2" data-name="Layer 2"><g id="Layer_1-2" data-name="Layer 1"><g id="bat"><rect class="cls-1" x="2" y="2" width="98.32" height="98.32" rx="12"/><path class="cls-2" d="M39.83,38.26a4.8,4.8,0,0,0,1.4-2.46,3.6,3.6,0,0,0,0-2.1c-.13-.31-.28-.52-.57-1.19-.17-.41-.3-.76-.38-1l.55.06.65.11a13.91,13.91,0,0,1,1.84.56,6.72,6.72,0,0,1,1.59.78,5.33,5.33,0,0,1,.93.86c.36.39.45.57,1,1.25.39.5.71.86.73.89.83.95,4.16,1.29,6.43-.19,2.86-1.87,3.14-6.07,2.63-8.62-1.16-5.82-7.46-8-7.88-8.19a42.4,42.4,0,0,1,46.7-1.24A36.9,36.9,0,0,0,82.8,44.12,23.27,23.27,0,0,0,71.38,56,23.69,23.69,0,0,0,72.09,75L72,75A23.69,23.69,0,0,0,53.23,72.5a23.3,23.3,0,0,0-13,10.22,36.83,36.83,0,0,0-27.42,10,42.41,42.41,0,0,1,5.75-46.37c.1.43,1.71,6.92,7.39,8.64,2.49.75,6.7.88,8.83-1.79,1.69-2.11,1.68-5.46.82-6.37,0,0-.36-.38-.82-.82-.63-.6-.79-.71-1.15-1.1a6.26,6.26,0,0,1-.77-1,7,7,0,0,1-.62-1.66,14.07,14.07,0,0,1-.37-1.89c0-.32,0-.65,0-.65,0-.21,0-.4,0-.56.22.1.56.26.95.48.64.35.83.52,1.13.67a3.47,3.47,0,0,0,2.09.26,4.75,4.75,0,0,0,2.58-1.16Z"/></g></g></g></svg>