<svg xmlns="http://www.w3.org/2000/svg" viewBox="0 0 102.32 102.32"><defs><style>.cls-1{fill:#f15a29;stroke-width:4px;}.cls-1,.cls-3{stroke:#fff;stroke-miterlimit:10;}.cls-2,.cls-3{fill:#fff;}</style></defs><g id="Layer_2" data-name="Layer 2"><g id="Layer_1-2" data-name="Layer 1"><g id="bat_indication"><rect class="cls-1" x="2" y="2" width="98.32" height="98.32" rx="12"/><path class="cls-2" d="M52.38,21.72a3.53,3.53,0,0,0,2-.63,2.73,2.73,0,0,0,1-1.18c.09-.23.11-.42.29-.93.12-.31.22-.57.3-.73.08.08.17.19.27.31l.29.38a10.45,10.45,0,0,1,.72,1.23,4.57,4.57,0,0,1,.48,1.23,4.28,4.28,0,0,1,.08.94c0,.4-.05.54-.1,1.18,0,.47,0,.83-.05.86,0,.93,1.63,2.79,3.61,3.13,2.5.42,4.77-1.73,5.77-3.38,2.3-3.76,0-8.15-.17-8.44A31.52,31.52,0,0,1,93,38.55a27.35,27.35,0,0,0-20.13,8,17.24,17.24,0,0,0-12.24.75A17.62,17.62,0,0,0,51.48,58h-.09a17.53,17.53,0,0,0-9-10.84,17.34,17.34,0,0,0-12.22-1,27.8,27.8,0,0,0-7.9-5.69,27.59,27.59,0,0,0-12.09-2.68,31.49,31.49,0,0,1,26.5-22.39c-.16.28-2.55,4.64-.32,8.44,1,1.66,3.21,3.85,5.72,3.47,2-.3,3.66-2.13,3.65-3.06,0,0,0-.39,0-.86,0-.65-.08-.79-.07-1.18a3.78,3.78,0,0,1,.09-.94,4.55,4.55,0,0,1,.5-1.22A9.8,9.8,0,0,1,47,18.85l.3-.37.28-.31c.07.16.17.42.28.73.17.52.19.71.27.94a2.63,2.63,0,0,0,1,1.19,3.45,3.45,0,0,0,2,.67Z"/><path class="cls-2" d="M52.42,65.83c3.22,0,3.22-5,0-5s-3.22,5,0,5Z"/><path class="cls-2" d="M56.36,72.3c3.22,0,3.23-5,0-5s-3.22,5,0,5Z"/><path class="cls-2" d="M60.87,79.34c3.22,0,3.22-5,0-5s-3.22,5,0,5Z"/><path class="cls-3" d="M46.23,98.24c5.56-5.12,9.85-9.14,13.51-12.67,1.9-1.82,3-3,5.07-3.66,3.76-1.3,6.14.4,10.14-1.41a14,14,0,0,0,3.38-2.25,19.09,19.09,0,0,0,4.22-5.35C84,70.63,88,68.36,100,69l-1.41,22-3.38,6.19a151.36,151.36,0,0,1-32.66,2.54A150.94,150.94,0,0,1,46.23,98.24Z"/></g></g></g></svg>