<svg xmlns="http://www.w3.org/2000/svg" viewBox="0 0 70.55 72.94"><defs><style>.cls-1{fill:none;stroke:#fff;stroke-miterlimit:10;stroke-width:4px;}.cls-2{fill:#fff;fill-opacity:0.35;}.cls-3{fill:none;stroke:#fff;stroke-miterlimit:10;stroke-width:1.5px;stroke-opacity:0.9;}</style></defs><g id="Layer_2" data-name="Layer 2"><g id="Layer_1-2" data-name="Layer 1"><g id="bounding_box" data-name="bounding box"><polygon class="cls-2" points="2,70.94 52,70.94 68.55,52.02 18.55,52.02"/><polygon class="cls-2" points="2,20.94 2,70.94 18.55,52.02 18.55,2.02"/><polyline class="cls-3" points="6,66 22,66 18,60 32,60 28,54 46,54"/><polyline class="cls-3" points="6,30 6,44 12,40 12,54 18,50 18,64"/><rect class="cls-1" x="18.55" y="2.02" width="50" height="50"/><rect class="cls-1" x="2" y="20.94" width="50" height="50"/><line class="cls-1" x1="18.07" y1="1.32" x2="1.52" y2="20.24"/><line class="cls-1" x1="67.94" y1="2.69" x2="51.39" y2="21.61"/><line class="cls-1" x1="19.23" y1="51.19" x2="2.67" y2="70.11"/><line class="cls-1" x1="69.05" y1="52.7" x2="52.49" y2="71.62"/></g></g></g></svg>
