<svg xmlns="http://www.w3.org/2000/svg" viewBox="0 0 102.32 102.32"><defs><style>.cls-1{fill:#f15a29;}.cls-1,.cls-2{stroke:#fff;stroke-miterlimit:10;stroke-width:4px;}.cls-2{fill:#fff;}</style></defs><g id="Layer_2" data-name="Layer 2"><g id="icons"><g id="breakdown"><rect class="cls-1" x="2" y="2" width="98.32" height="98.32" rx="12"/><path class="cls-2" d="M58.3,75.62c3,5.35,6.16,6.1,6.25,9.76,0,1.73-.58,4.38-2.44,5.64-1.45,1-2.72.51-3.35,1.53-1,1.56,1.45,3.61.61,5.34-.77,1.56-3.62,1.64-4.73,1.68-3,.08-3.88-1.18-8.54-1.68a18.85,18.85,0,0,0-2.44-.15c-3.78,0-6.15,1.24-8.09,1.83-4.06,1.23-7.84.14-9.91-.46-6.95-2-13.78-9-12.51-13.43,1.06-3.67,7-2.64,10.22-8.38,1.69-3,.49-4.12,2.13-7.17,3.21-6,10.9-7.52,12.36-7.78,5.87-1.06,13.75.31,17.39,5.33C57.2,70.38,55.8,71.19,58.3,75.62Z"/><path class="cls-2" d="M67.15,79.85C66,77,69.51,75.18,71.88,67.5c1.74-5.68.78-7.82,2.74-9C77,57.06,78.88,60,86.37,60.33c2.23.1,3.84-.08,6.25.76,1.33.46,3.6,1.28,4.73,3.36.56,1,.39,1.53.76,3.81.65,3.9,1.46,4.21,1.53,5.95.17,4.37-4.72,7.84-5.49,8.39-3.68,2.6-7.56,2.69-10.07,2.75a26,26,0,0,1-7.93-1.22C70.73,82.65,68,81.91,67.15,79.85Z"/><path class="cls-2" d="M45.64,57.91c-7.55-.5-7.82-2.89-16.78-3.82-5.56-.57-7.1.22-10.37-1.37-2.91-1.41-4.64-3.38-7.94-7.32-6.26-7.48-7.64-8.56-7.47-10.53S4.51,30.55,6.44,30c3-.86,4.62,3.42,11.13,6.56,4.27,2.05,5,.92,11.29,3.36,2.12.82,2,.94,9.3,4.72,9.1,4.72,13.65,7.08,15.26,7.78,4.17,1.83,5.85,2.28,5.79,3.05C59.1,57,52.16,58.33,45.64,57.91Z"/><path class="cls-2" d="M44.27,42.63c-2.44-4.13,5.89-13.46,9.45-16.93s3.87-2.45,15-10.22C77,9.66,78.72,7.72,82.55,7.7c5.69,0,9.86,4.2,11.14,5.49,5.42,5.5,5.81,12.57,5.8,15.11C99.43,36,95.25,45.49,88.05,48c-5.65,2-7.89-2.2-19.23-4.12C54.29,41.41,46.41,46.28,44.27,42.63Z"/><path class="cls-2" d="M22.05,32.09c-3.23-3-3.28-8.36-1.43-11.59,4.57-8,22.21-5.67,23.59-1.43.63,1.93-2,4.82-7.11,10.58a13.54,13.54,0,0,1-3.05,2.85C31,34.36,25.48,35.28,22.05,32.09Z"/><path class="cls-2" d="M6.83,8.09c-.41,3.33,5.79,8,11.18,7.12A10.51,10.51,0,0,0,22.69,13c4-2.82,7.87-7.79,6.71-9.56-.72-1.09-2.59.17-8.95.21-4.76,0-6.23-.66-8.95.4C10.65,4.36,7.11,5.74,6.83,8.09Z"/></g></g></g></svg>