<svg xmlns="http://www.w3.org/2000/svg" viewBox="0 0 102.32 102.32"><defs><style>.cls-1,.cls-5{fill:#f15a29;stroke-miterlimit:10;}.cls-1,.cls-2,.cls-3,.cls-4,.cls-5{stroke:#fff;}.cls-1,.cls-2{stroke-width:4px;}.cls-2,.cls-3,.cls-4{fill:none;stroke-linejoin:round;}.cls-2,.cls-4,.cls-5{stroke-linecap:round;}.cls-3,.cls-4{stroke-width:6px;}.cls-5{stroke-width:7px;}</style></defs><g id="Layer_2" data-name="Layer 2"><g id="Layer_1-2" data-name="Layer 1"><g id="calcite_raft"><rect class="cls-1" x="2" y="2" width="98.32" height="98.32" rx="12"/><path class="cls-2" d="M2.91,35.93a21.12,21.12,0,0,1,11.14-3c1.32,0,3.3.23,11,3,10.18,3.74,9.78,4.53,12.66,4.73,3.58.24,4.08-1,15-4.73,10.33-3.57,13-3.56,14.19-3.51,5,.21,7,2,11.59,3.51s11.55,2.48,21.21,0"/><path class="cls-3" d="M2.43,53.78H98.91"/><path class="cls-4" d="M19.7,66.16H97.41"/><path class="cls-1" d="M4.3,77.17H78.91"/><path class="cls-5" d="M96.28,88.18H27.17"/></g></g></g></svg>