<svg xmlns="http://www.w3.org/2000/svg" viewBox="0 0 102.32 102.32"><defs><style>.cls-1{fill:#f15a29;stroke-miterlimit:10;stroke-width:4px;}.cls-1,.cls-2,.cls-3,.cls-4,.cls-5,.cls-6,.cls-7,.cls-8,.cls-9{stroke:#fff;}.cls-2,.cls-3,.cls-4,.cls-5,.cls-6,.cls-7{fill:none;}.cls-2,.cls-3,.cls-6,.cls-8{stroke-miterlimit:2.61;}.cls-2,.cls-3,.cls-4,.cls-5,.cls-6,.cls-7,.cls-8,.cls-9{stroke-opacity:0.99;}.cls-2{stroke-width:1.11px;}.cls-3{stroke-width:0.89px;}.cls-4{stroke-linecap:round;}.cls-4,.cls-5,.cls-7{stroke-linejoin:round;}.cls-4,.cls-5,.cls-6,.cls-7{stroke-width:2.21px;}.cls-7{stroke-linecap:square;}.cls-8,.cls-9{fill:#fff;stroke-width:0.18px;fill-rule:evenodd;}.cls-9{stroke-linejoin:bevel;}</style></defs><g id="Layer_2" data-name="Layer 2"><g id="Layer_1-2" data-name="Layer 1"><g id="danger"><rect class="cls-1" x="2" y="2" width="98.32" height="98.32" rx="12"/><g id="g775"><g id="g740"><g id="g652"><path id="path611" class="cls-2" d="M36.49,60.47a45.39,45.39,0,0,1,2,5.62,37.66,37.66,0,0,1,1.23,6.59"/><path id="path612" class="cls-2" d="M66.92,60.34a43.75,43.75,0,0,0-2,5.62,37.56,37.56,0,0,0-1.24,6.59"/><g id="g637"><path id="path588" class="cls-3" d="M40.79,66c2.61,1.6,7.11,1.85,11.15,1.78,4.49,0,8.34-.35,10.87-1.88"/><path id="path608" class="cls-3" d="M41.7,70.16a17.36,17.36,0,0,0,10.15,2.29c4-.1,7.15-.44,9.92-2.34"/><g id="g625"><path id="path609" class="cls-2" d="M39.62,72.35c3.07,3.71,7.37,4.36,12.25,4.49C57.09,77,62.34,75,63.7,72.35"/><g id="g615"><path id="path589" class="cls-3" d="M41.66,66.8l-.07,7.29"/><path id="path592" class="cls-3" d="M44.06,67.57l0,7.81"/><path id="path593" class="cls-3" d="M46.71,67.9l-.07,8.18"/><path id="path594" class="cls-3" d="M49.11,68.09l0,8.29"/><path id="path595" class="cls-3" d="M51.8,68.16v8.29"/><path id="path598" class="cls-3" d="M54.38,68.12l0,8.29"/><path id="path599" class="cls-3" d="M56.7,67.9l.07,8.15"/><path id="path604" class="cls-3" d="M59.39,67.46l0,7.81"/><path id="path606" class="cls-3" d="M61.82,66.5l.08,7.37"/></g></g></g></g><g id="g675"><path id="path573" class="cls-4" d="M29.28,45.78c-3.39-3.29-5.76-9-6.09-15.18a20.73,20.73,0,0,1,8.6-17.41C37.8,9,47.86,7.78,54.11,8.1c4.24,0,13.67,2.2,17,4.68A21.51,21.51,0,0,1,80.3,29.93a19.42,19.42,0,0,1-6.14,15.44"/><path id="path580" class="cls-5" d="M29.48,26.43c-1.37,1.2-1.19,3-.95,5.7.2,2,1.5,4.06,1.57,5.93.48,3.95-.68,7.89-1.23,11.12-.38,3.7.68,6.89,2.06,8.13a12.82,12.82,0,0,0,5,2.29,10.18,10.18,0,0,1,3.85,2.16,5.88,5.88,0,0,1,1.85,4.61"/><path id="path581" class="cls-5" d="M74.17,26.33c1.38,1.2,1.2,3,1,5.7-.2,2-1.5,4.06-1.57,5.93-.48,3.94.68,7.89,1.23,11.11.38,3.71-.68,6.9-2.06,8.14s-3.88,1.87-5,2.29a13.75,13.75,0,0,0-3.85,2.23A5.69,5.69,0,0,0,62,66.26"/><path id="path613" class="cls-6" d="M33.41,59.13c1.23,3,2.53,5.87,2.65,8.92a16.9,16.9,0,0,0,.22,7.66,13.46,13.46,0,0,0,6.93,8.19,21.72,21.72,0,0,0,8.62,1.43"/><path id="path614" class="cls-6" d="M70.08,59.13c-1.23,3-2.53,5.87-2.66,8.92a16.62,16.62,0,0,1-.22,7.66,13.27,13.27,0,0,1-7,8.08,19.47,19.47,0,0,1-8.55,1.54"/></g></g><g id="g770"><path id="path765" class="cls-5" d="M68.2,73.06l12.09,5.6a5.1,5.1,0,0,0,3.76.08,6.41,6.41,0,0,1,4.57.36c1.74.89,1.79,2.14.66,3.4s-2.07,1.81-3.32,3c-.27,1.94-.1,3.73-1,5.53-1.08,1.57-2.23,1.3-4-.37-1.84-1.43-1.18-3-3.83-5.31L65.91,79.55"/><path id="path766" class="cls-5" d="M35.18,73a107.2,107.2,0,0,1-12.31,5.89c-3.76.94-3.61-1.37-8.18.15a2.28,2.28,0,0,0-.22,3.61c1.22,1.21,2.08,2,3.17,3a41.71,41.71,0,0,1,.59,4.65c.73,2.23,2.35,2.11,3.75,1a17.92,17.92,0,0,0,1.85-2.28A24.66,24.66,0,0,1,26,85.66l11.13-5.89"/><path id="path767" class="cls-7" d="M70,61c4.57-2.26,8.33-4.08,12.45-6.12,2.53-2.11,1.9-4.15,3.91-5.67,2-1.89,3.32-1.43,4-.37a12.61,12.61,0,0,1,1,5.45,23.59,23.59,0,0,1,4,4.35c.15,2-1.62,2.85-3.76,2.88-2.8.51-3.24-1.25-6.41,0L68.42,69.37"/><path id="path769" class="cls-5" d="M33.83,61.15c-4.62-2.26-8.46-3.95-13-6.47-2.48-2-1.68-4.22-4.69-6-1.32-.66-2.27-1-3.33.83a14.47,14.47,0,0,0-.73,5c-1.18,1.27-2.52,2-3.49,3.6-1.41,2.26.73,3,1.87,3.28,3.27.82,4.45-.66,7.46,0,5.85,2.73,11.76,5.56,17.4,8.34"/></g></g><g id="g670"><path id="path584" class="cls-8" d="M51.13,50.06a10,10,0,0,0-3.05,3.18A11,11,0,0,0,46.92,56a15.85,15.85,0,0,0-.3,2.81c0,2.28.72,3.71,1.51,3.66s1.61-.82,3-2.5"/><path id="path585" class="cls-9" d="M52.36,50.09A10.25,10.25,0,0,1,56.57,56a16.94,16.94,0,0,1,.31,2.81c0,2.28-.73,3.7-1.52,3.65s-1.61-.81-3-2.49"/><path id="path586" class="cls-8" d="M36.54,40.11c2.38-.41,4.69-.68,7.07-1,3.12-.79,4.69,2.77,3.83,5.45A27.28,27.28,0,0,1,43.1,51.1a4,4,0,0,1-4.5,1.25A6.4,6.4,0,0,1,35,49.48c-.54-1.53-1-2.32-1.7-4.21A4.2,4.2,0,0,1,36.54,40.11Z"/><path id="path587" class="cls-8" d="M67,40.11c-2.38-.41-4.69-.68-7.07-1-3.12-.79-4.7,2.77-3.84,5.45a27.62,27.62,0,0,0,4.35,6.49,4,4,0,0,0,4.5,1.25,6.43,6.43,0,0,0,3.61-2.87c.54-1.53,1-2.32,1.7-4.21A4.2,4.2,0,0,0,67,40.11Z"/></g></g></g></g></svg>