<svg xmlns="http://www.w3.org/2000/svg" viewBox="0 0 102.32 102.32"><defs><style>.cls-1{fill:#f15a29;stroke-width:4px;}.cls-1,.cls-2,.cls-3{stroke:#fff;stroke-miterlimit:10;}.cls-2,.cls-3{fill:#fff;}.cls-2{stroke-width:0.31px;}.cls-3{stroke-width:0.32px;}</style></defs><g id="Layer_2" data-name="Layer 2"><g id="icons"><g id="climb"><rect class="cls-1" x="2" y="2" width="98.32" height="98.32" rx="12"/><g id="ulo_ember"><g id="csizma"><path class="cls-2" d="M44,89.16,39.32,83l-.66.08a.3.3,0,0,0-.25.22,4,4,0,0,0-.12.6,4.94,4.94,0,0,0,.45,2.73,6.46,6.46,0,0,0,2,2.75,6.1,6.1,0,0,0,.79.52l2.25,1.52a.2.2,0,0,1,0,.28l-.42.62a.21.21,0,0,0,0,.26l2.3,2.49a.46.46,0,0,0,.64,0l1.45-1.26Z"/><path class="cls-2" d="M52.37,90.5c-.58.33-1,.57-1.57,1a23.1,23.1,0,0,0-1.95,1.46c-.43.36-.78.69-1.06,1a.25.25,0,0,1-.3.06l-.09-.06a6.32,6.32,0,0,1-.72-.55c-.62-.54-1.26-1.19-1.26-1.19-1.26-1.29-1.14-1.22-1.41-1.45a15.28,15.28,0,0,0-1.54-1c-1-.67-1.51-1-1.63-1.11a5.66,5.66,0,0,1-1.64-2.7,7,7,0,0,1-.19-2.7.3.3,0,0,1,.13-.2,2.66,2.66,0,0,1,1-.43,1.92,1.92,0,0,1,1.07.14,2.64,2.64,0,0,1,1.11.85l.16.19.4.47a3,3,0,0,0,.73.59,3.51,3.51,0,0,0,1.74.38,5.94,5.94,0,0,0,2.42-.61"/></g><path class="cls-2" d="M93.17,29.07A5.67,5.67,0,0,1,95,30a6.36,6.36,0,0,1,1.67,2.11,10.87,10.87,0,0,1,1.11,3.73,42.16,42.16,0,0,1,.51,5.46c0,4.62-.23,5.09-.2,8.66a73,73,0,0,0,.52,8.11,41,41,0,0,0,1,6.25,11.59,11.59,0,0,1,.61,3.17,11.26,11.26,0,0,1-.17,2.35,8.5,8.5,0,0,1-.93,2.92c-1.27,2-4.47,2.09-6.59,2.15-3,.09-3.54-.58-6.9-.77a38.35,38.35,0,0,0-6.89.49c-2.53.29-6,.74-10,1.42-2.19,2.34-4.16,4.28-5.76,5.8s-2.63,2.31-5.68,5c-1.93,1.71-3.49,3.12-4.46,4Q50,87.51,47.26,84.08a47.23,47.23,0,0,0,7.1-5.36c2.28-2.11,4.74-4.66,4.74-4.66.85-.88,1.31-1.39,2.23-2.27a25.81,25.81,0,0,1,3.86-3.29,17.63,17.63,0,0,1,4.54-2A40.48,40.48,0,0,1,76.14,65a80.69,80.69,0,0,0,8.6-2c-.25-.91-.57-2.17-.86-3.68a59.22,59.22,0,0,1-.82-6,55.82,55.82,0,0,1-.37-8.33,16.79,16.79,0,0,1,.54-4.33A20.42,20.42,0,0,1,85.34,36c.8-1.48,1.72-2.92,1.85-3.14l.53-.81a30,30,0,0,1-1.22-3c-.15-.42-.28-.84-.41-1.24A4.63,4.63,0,0,1,85,28a3.17,3.17,0,0,1-1.29-.16,2.82,2.82,0,0,1-1-.68,3.43,3.43,0,0,1-.76-1.62,8.88,8.88,0,0,1-.3-2.41c-.09,0-1,0-1.18-.47a.49.49,0,0,1,0-.26,3.1,3.1,0,0,1,.73-1.14,3,3,0,0,0,.54-1.08A3.21,3.21,0,0,0,81.79,19c0-.35-.09-.45-.14-.75a4.63,4.63,0,0,1,0-1.77,6,6,0,0,1,.57-1.56c.84-1.55,5.45-4.74,9.68-2.81a8,8,0,0,1,3.88,4.22c0,.34,0,.83-.07,1.4A12.15,12.15,0,0,1,95.21,21a9.67,9.67,0,0,1-1.67,2.92,9.21,9.21,0,0,1-.65.73c0,.19,0,.45-.06.77a15.16,15.16,0,0,0,0,1.68A12.82,12.82,0,0,0,93.17,29.07Z"/><path class="cls-3" d="M97.28,17.26,79.87,16a9.15,9.15,0,0,1,7.72-7.57C92.18,8,96.84,11.83,97.28,17.26Z"/></g><path class="cls-2" d="M45.71,100.32C42.5,89.61,37.65,83,33.6,78.92s-8.42-6.86-8.16-11,4.5-4.39,7.32-9.57c4.15-7.63.64-17.31-.84-21.4-3.43-9.45-7.62-9.44-8.45-17.18-.54-5,.93-7.79-1.13-11.54C20.42,4.75,16.84,3,14,2A19.76,19.76,0,0,0,7.14,6.28a19.56,19.56,0,0,0-3.66,4.78Q3.33,50.63,3.2,90.18A9.93,9.93,0,0,0,7.14,97.5a9.6,9.6,0,0,0,6.19,1.69Z"/></g></g></g></svg>