<svg xmlns="http://www.w3.org/2000/svg" viewBox="0 0 102.32 102.32"><defs><style>.cls-1{fill:#f15a29;stroke-width:4px;}.cls-1,.cls-2{stroke:#fff;stroke-miterlimit:10;}.cls-2{fill:none;stroke-width:6px;}</style></defs><g id="Layer_2" data-name="Layer 2"><g id="Layer_1-2" data-name="Layer 1"><g id="draft"><rect class="cls-1" x="2" y="2" width="98.32" height="98.32" rx="12"/><path class="cls-2" d="M14.67,36.05h61.5a12,12,0,0,0,8.18-4.51c.23-.31,3.91-5.39,1.54-10.71a10.22,10.22,0,0,0-5.42-5.16c-4.21-1.67-9.41-.24-13.16,3.61"/><path class="cls-2" d="M21.67,47h61.5a12,12,0,0,1,8.18,4.52c.23.31,3.91,5.38,1.54,10.71a10.27,10.27,0,0,1-5.42,5.16c-4.21,1.67-9.41.23-13.16-3.62"/><path class="cls-2" d="M17.51,58H51.17a12,12,0,0,1,8.18,4.52c.23.31,3.91,5.38,1.54,10.71a10.27,10.27,0,0,1-5.42,5.16c-4.21,1.67-9.41.23-13.16-3.62"/></g></g></g></svg>