<svg xmlns="http://www.w3.org/2000/svg" viewBox="0 0 102.43 102.32"><defs><style>.cls-1{fill:#f15a29;}.cls-1,.cls-2,.cls-3,.cls-4{stroke:#fff;stroke-miterlimit:10;}.cls-1,.cls-2{stroke-width:4px;}.cls-2,.cls-3,.cls-5{fill:#fff;}.cls-3{stroke-width:3.09px;}.cls-4{fill:none;stroke-width:6px;}</style></defs><g id="Layer_2" data-name="Layer 2"><g id="icons"><g id="enlargement"><rect class="cls-1" x="2.11" y="2" width="98.32" height="98.32" rx="12"/><path class="cls-2" d="M2,24.57C3.53,29.24,6.3,35.16,11.58,37c5.88,2,9.78-2.81,21.54-5.49,3.34-.76,20.28-4.62,25,2,3.85,5.39-3.18,13.83,1,18,1.52,1.52,5,1.37,12,1,6.27-.32,7.45-1.42,17-3,8.32-1.37,8.75-.88,10-2,3.44-3.07,2.12-8.56.91-24.54-.44-5.88-.68-10.66-.81-13.63A9,9,0,0,0,96,5.45,10.12,10.12,0,0,0,88.05,2.8l-76.68,1a10.16,10.16,0,0,0-4.88,2,10.77,10.77,0,0,0-3.86,7.53Q2.32,19,2,24.57Z"/><path class="cls-3" d="M98.83,84.77,98.62,65a37.68,37.68,0,0,1-18,2c-2.56-.38-7.49-1.42-15-2-5.18-.4-7.12-.23-8,1-2,2.83,3.84,7.93,2,11s-8.79-.89-17,3c-4.14,2-4.26,3.89-8,5-4.83,1.45-9.63-.27-13-2C18,77,11.23,75.38,7.43,77.83c-3.52,2.27-3.58,7.41-3.58,7.93.27,2.77.53,5.54.8,8.3a5.49,5.49,0,0,0,2.19,2.36c3,1.87,7.12,1.65,7.76,1.61l75.07-.62a13.68,13.68,0,0,0,4.78-1.24c3.37-1.65,3.73-4.13,3.78-4.58Z"/><line class="cls-4" x1="32.12" y1="48.95" x2="32.12" y2="64.02"/><polygon class="cls-5" points="43.06 50.41 21.19 50.41 32.12 39.48 43.06 50.41"/><polygon class="cls-5" points="43.06 62.55 21.19 62.55 32.12 73.48 43.06 62.55"/></g></g></g></svg>