<svg xmlns="http://www.w3.org/2000/svg" viewBox="0 0 102.32 102.32"><defs><style>.cls-1{fill:#f15a29;stroke-miterlimit:10;stroke-width:4px;}.cls-1,.cls-2{stroke:#fff;}.cls-2{fill:#fff;stroke-linejoin:round;stroke-width:0.58px;}</style></defs><g id="Layer_2" data-name="Layer 2"><g id="Layer_1-2" data-name="Layer 1"><g id="exploration_site"><rect class="cls-1" x="2" y="2" width="98.32" height="98.32" rx="12"/><path class="cls-2" d="M89.85,43.76c4.37,5.76,6.05,9.81,6.47,9.62s-1.26-5.65-3.76-11.24a67.36,67.36,0,0,0-7.71-13.71A78.08,78.08,0,0,0,68.41,11.31a1.58,1.58,0,0,0-2.25.34c-.84,1.16-1.69,2.32-2.53,3.49a1.59,1.59,0,0,0,.25,2.13l6.78,5.93a1.59,1.59,0,0,1,.16,2.25c-2.57,2.89-5.38,5.87-8.47,8.89a171.08,171.08,0,0,1-13,11.52,1.58,1.58,0,0,1-.88.35l-1,.07a1.6,1.6,0,0,0-.94.39L8.8,79.94a1.6,1.6,0,0,0-.21,2.17l4.22,5.49a1.59,1.59,0,0,0,2.36.18l37-35.45a1.53,1.53,0,0,0,.48-.95l.15-1.22a1.72,1.72,0,0,1,.43-.91,166.93,166.93,0,0,1,13.49-12.6c2.92-2.45,5.8-4.68,8.6-6.73a1.58,1.58,0,0,1,2,.13c2.46,2.32,5,4.9,7.55,7.76A56.58,56.58,0,0,1,89.85,43.76Z"/><path class="cls-2" d="M14.8,43.76c-4.36,5.76-6.05,9.81-6.46,9.62s1.25-5.65,3.76-11.24a66.82,66.82,0,0,1,7.71-13.71A78.3,78.3,0,0,1,36.24,11.31a1.59,1.59,0,0,1,2.26.34L41,15.14a1.58,1.58,0,0,1-.24,2.13L34,23.2a1.6,1.6,0,0,0-.15,2.25c2.56,2.89,5.38,5.87,8.47,8.89a171,171,0,0,0,13,11.52,1.61,1.61,0,0,0,.89.35l1,.07a1.55,1.55,0,0,1,.94.39L95.85,79.94a1.6,1.6,0,0,1,.21,2.17L91.85,87.6a1.6,1.6,0,0,1-2.37.18l-37-35.45a1.64,1.64,0,0,1-.48-.95l-.15-1.22a1.58,1.58,0,0,0-.43-.91A168.39,168.39,0,0,0,38,36.65c-2.93-2.45-5.81-4.68-8.6-6.73a1.57,1.57,0,0,0-2,.13c-2.46,2.32-5,4.9-7.55,7.76A55.44,55.44,0,0,0,14.8,43.76Z"/></g></g></g></svg>