<svg xmlns="http://www.w3.org/2000/svg" viewBox="0 0 102.32 102.32"><defs><style>.cls-1{fill:#f15a29;stroke-width:4px;}.cls-1,.cls-2,.cls-3,.cls-4{stroke:#fff;stroke-miterlimit:10;}.cls-2,.cls-3,.cls-4{fill:#fff;}.cls-2{stroke-width:1.16px;}.cls-3,.cls-4{stroke-linecap:round;}.cls-3{stroke-width:3px;}.cls-4{stroke-width:8px;}</style></defs><g id="Layer_2" data-name="Layer 2"><g id="Layer_1-2" data-name="Layer 1"><g id="foot_peg"><rect class="cls-1" x="2" y="2" width="98.32" height="98.32" rx="12"/><path class="cls-2" d="M48.24,59.74,21.93,48.49l-1.84,1a.73.73,0,0,0-.32.91,16.28,16.28,0,0,0,.82,1.76c1.85,3.42,4.37,5.27,6.77,7A29.54,29.54,0,0,0,42.3,64.81l9.8,1.5a.73.73,0,0,1,.62.74l0,2.23a.72.72,0,0,0,.49.7L65,74.09a1.45,1.45,0,0,0,1.85-.88c.62-1.73,1.25-3.47,1.88-5.2Z"/><path class="cls-2" d="M64.32,8l-.94-.21a1.48,1.48,0,0,0-1.76,1.1C59,19.62,57.84,24,57.31,25.67c-.08.26-.43,1.41-.86,3-.55,2-.86,3.43-1,3.94a26.35,26.35,0,0,1-3.28,7.51,17.18,17.18,0,0,1-7.88,7,13,13,0,0,1-6,1,13.6,13.6,0,0,1-3.36-.74l-2.15-.82-.86-.33a12.66,12.66,0,0,0-5.05-1,6.6,6.6,0,0,0-3.49.9,6.17,6.17,0,0,0-2.19,2.37.71.71,0,0,0,0,.69,26.72,26.72,0,0,0,5.9,7.2A26.37,26.37,0,0,0,37.4,61.8c.53.13,2.73.47,7.12,1.11,4.18.61,4.88.63,6.71,1.07,1.27.3.78.25,7.14,2.3,0,0,3.23,1,6.16,1.78.67.17,1.79.44,3.25.67l.39,0a.71.71,0,0,0,.79-.51c.31-1.08.74-2.41,1.31-3.89a48.58,48.58,0,0,1,3-6.34C75,55,75.89,53.91,79.08,49.13c1.39-2.07,2.58-3.91,3.56-5.44.15-.29.31-.57.46-.87L93.28,20.57a1.47,1.47,0,0,0-.64-1.89c-.81-.44-1.17-.59-2-1Z"/><path class="cls-3" d="M2.11,14.8c.18-1,1.47-7.41,7.53-10.78C13.13,2.09,19.18.63,21,3c2.46,3.15-5.63,9-7.12,22.37-.59,5.32.54,5.65-.41,11.39s-2.62,8.7-1.83,14c.31,2,.54,1.54,1.43,5.29,1.33,5.68,2.2,9.33,1.42,13.22-1.1,5.51-4.26,5.4-4.27,9.56,0,4.33,3.55,5.07,4.47,10.58.61,3.57,0,8.68-2.44,9.56-2.14.75-5.65-1.68-8.13-6.1Q3.43,68.81,2.72,44.7"/><path class="cls-4" d="M14.72,61.38,67.81,80.3"/></g></g></g></svg>