<svg xmlns="http://www.w3.org/2000/svg" viewBox="0 0 102.32 102.62"><defs><style>.cls-1,.cls-2,.cls-3,.cls-4{fill:#f15a29;}.cls-1,.cls-2,.cls-3{stroke:#fff;stroke-miterlimit:10;}.cls-1{stroke-width:4px;}.cls-2,.cls-3{stroke-linecap:round;}.cls-2{stroke-width:7px;}.cls-3{stroke-width:5px;}.cls-5{fill:#fff;}</style></defs><g id="Layer_2" data-name="Layer 2"><g id="Layer_1-2" data-name="Layer 1"><g id="helictite"><rect class="cls-1" x="2" y="2" width="98.32" height="98.32" rx="12"/><path class="cls-2" d="M38.33,99.12A186.35,186.35,0,0,1,41,74.71a89.23,89.23,0,0,0,1.43-10,74.76,74.76,0,0,0-.61-16.68,45.37,45.37,0,0,1-17.29-1C19.37,45.72,14.24,44.4,13.11,41,11.76,36.84,16.36,30.6,24.5,25.9"/><path class="cls-3" d="M41.79,48.07c5.43-3.79,9.8-6.7,12.61-8.54,6.22-4.1,9.15-5.85,9.35-8.75.17-2.39-1.62-4-3.45-6.31-2.58-3.28-5.65-8.57-7.12-17.08"/><path class="cls-3" d="M41.79,75.53C50,71.74,53.72,67.08,55.62,63.32c3.66-7.24,1.76-13.76,6.71-16.88,3.82-2.41,8.78-.93,9.15-.81,5.55,1.74,6.45,6.86,9.36,6.91,2.18,0,5.26-2.78,9.15-15.46"/><path class="cls-4" d="M58.52,59.76a45.11,45.11,0,0,1,14.84,1,41.94,41.94,0,0,1,5.29,1.63"/><path class="cls-5" d="M58.28,57.27a45.76,45.76,0,0,1,20.37,5.14,43.2,43.2,0,0,0-19.9-.16,2.52,2.52,0,1,1-.47-5Z"/><path class="cls-3" d="M41.79,48.07l1.62-29.29"/></g></g></g></svg>