<svg xmlns="http://www.w3.org/2000/svg" viewBox="0 0 102.32 102.32"><defs><style>.cls-1{fill:#f15a29;stroke-width:4px;}.cls-1,.cls-2,.cls-3{stroke:#fff;}.cls-1,.cls-3{stroke-miterlimit:10;}.cls-2,.cls-3{fill:#fff;}.cls-2{stroke-linecap:round;stroke-linejoin:round;}</style></defs><g id="Layer_2" data-name="Layer 2"><g id="Layer_1-2" data-name="Layer 1"><g id="pavement"><rect class="cls-1" x="2" y="2" width="98.32" height="98.32" rx="12"/><path class="cls-2" d="M69.79,77.88,60,63.69q-1.11-4.75-2-10.06a157,157,0,0,1-1.83-17.32l3.43,2.21,1.84,10c.86,2.75,3.67,3.82,5.33,3a3.94,3.94,0,0,0,1.61-4.35q-1.23-6.51-2.44-13l-10.45-7c-.51-.27-5.87-3.11-11.29-.38a12,12,0,0,0-5.49,5.95l-4.81,7.7-7,3.06a3.89,3.89,0,0,0,2.37,6.94l8.92-3.44L42,40.51Q43,45.58,44,50.65l-10.53,13-2.21,17c.61,3,3.28,4.79,5.57,4.35a4.79,4.79,0,0,0,3.43-3.43q1.21-7,2.44-14L49.12,60c.35,2.32.71,4.63,1.06,6.94L60.94,82.76a5.11,5.11,0,0,0,8.85-4.88Z"/><circle class="cls-3" cx="44.52" cy="16.91" r="6.66"/><rect class="cls-3" x="12.35" y="84.67" width="76.47" height="13.63"/></g></g></g></svg>