<svg xmlns="http://www.w3.org/2000/svg" viewBox="0 0 102.32 102.32"><defs><style>.cls-1{fill:#f15a29;stroke-width:4px;}.cls-1,.cls-2{stroke:#fff;stroke-miterlimit:10;}.cls-2{fill:#fff;stroke-width:1.27px;}</style></defs><g id="Layer_2" data-name="Layer 2"><g id="Layer_1-2" data-name="Layer 1"><g id="photo"><rect class="cls-1" x="2" y="2" width="98.32" height="98.32" rx="12"/><path class="cls-2" d="M88.37,32.34a2.85,2.85,0,0,0-2.3-.68H70.69c-1.56-.44-2.94-1.05-3.49-2.23l-1.52-3.3a3.84,3.84,0,0,0-3.49-2.23H40.45A3.84,3.84,0,0,0,37,26.13c-.51,1.1-1,2.2-1.52,3.3A3.84,3.84,0,0,1,32,31.66H16.63a3.51,3.51,0,0,0-3.24,3.15V76.55a3.91,3.91,0,0,0,1.12,2.72,3.87,3.87,0,0,0,2.72,1.12H85.42a3.84,3.84,0,0,0,3.84-3.84V34.21A2.83,2.83,0,0,0,88.37,32.34ZM50.71,71A15.49,15.49,0,1,1,66.2,55.51,15.49,15.49,0,0,1,50.71,71ZM85.29,39.93a4.51,4.51,0,1,1-4.51-4.51A4.51,4.51,0,0,1,85.29,39.93Z"/></g></g></g></svg>