<svg xmlns="http://www.w3.org/2000/svg" viewBox="0 0 130.33 109.05"><defs><style>.cls-1{fill:#f15a29;}.cls-1,.cls-2,.cls-4,.cls-5,.cls-6{stroke:#fff;}.cls-1,.cls-4,.cls-5,.cls-6{stroke-miterlimit:10;}.cls-1,.cls-2,.cls-5{stroke-width:4px;}.cls-2,.cls-3{fill:none;}.cls-2{stroke-linecap:round;stroke-linejoin:round;}.cls-4,.cls-5,.cls-6{fill:#fff;}.cls-4{stroke-width:7px;}</style></defs><g id="Layer_2" data-name="Layer 2"><g id="Layer_1-2" data-name="Layer 1"><g id="subaqueous"><rect class="cls-1" x="12.06" y="2" width="98.32" height="98.32" rx="12"/><path class="cls-2" d="M13,35.93a21.12,21.12,0,0,1,11.14-3c1.32,0,3.3.23,11,3,10.18,3.74,9.77,4.53,12.66,4.73,3.57.24,4.08-1,15-4.73,10.33-3.57,13-3.56,14.19-3.51,5,.21,7,2,11.59,3.51s11.55,2.48,21.2,0"/><path id="viz" class="cls-2" d="M13,35.93a21.12,21.12,0,0,1,11.14-3c1.32,0,3.3.23,11,3,10.18,3.74,9.77,4.53,12.66,4.73,3.57.24,4.08-1,15-4.73,10.33-3.57,13-3.56,14.19-3.51,5,.21,7,2,11.59,3.51s11.55,2.48,21.2,0"/><path class="cls-3" d="M49.57,100.32a12.69,12.69,0,0,0,22.59,0Z"/><path class="cls-4" d="M73.58,92.51a12.71,12.71,0,1,0-24,5.81H72.16A12.63,12.63,0,0,0,73.58,92.51Z"/><path class="cls-3" d="M99.19,98.49H78.05a12.7,12.7,0,0,0,25.14-.7A11.85,11.85,0,0,1,99.19,98.49Z"/><path class="cls-5" d="M103.19,97.79a13.93,13.93,0,0,0,.09-1.45,12.72,12.72,0,1,0-25.23,2.15H99.19A11.85,11.85,0,0,0,103.19,97.79Z"/><path class="cls-3" d="M117.61,73.46a12.66,12.66,0,0,0-7.23,2.26v12.6a11.89,11.89,0,0,1-2,6.58,12.71,12.71,0,1,0,9.22-21.44Z"/><path class="cls-5" d="M110.38,75.72a12.69,12.69,0,0,0-2,19.18,11.89,11.89,0,0,0,2-6.58Z"/><path class="cls-3" d="M111.92,45.18a13,13,0,0,0-1.54.11V70.51a13,13,0,0,0,1.54.1,12.72,12.72,0,0,0,0-25.43Z"/><path class="cls-6" d="M99.21,57.9a12.72,12.72,0,0,0,11.17,12.61V45.29A12.71,12.71,0,0,0,99.21,57.9Z"/><path class="cls-3" d="M14.8,70.11a12.69,12.69,0,0,0,0,22.59Z"/><path class="cls-4" d="M22.61,94.12a12.71,12.71,0,1,0-5.81-24V92.7A12.63,12.63,0,0,0,22.61,94.12Z"/><path class="cls-3" d="M12.71,68a13,13,0,0,0,1.54-.1V42.64a13,13,0,0,0-1.54-.1,12.71,12.71,0,0,0,0,25.42Z"/><path class="cls-6" d="M25.42,55.25A12.71,12.71,0,0,0,14.25,42.64V67.86A12.71,12.71,0,0,0,25.42,55.25Z"/></g></g></g></svg>