<svg xmlns="http://www.w3.org/2000/svg" viewBox="0 0 124.86 124.86"><defs><style>.cls-1{fill:#fff;}.cls-2{fill:none;stroke:#ed1c24;stroke-linecap:round;stroke-miterlimit:10;stroke-width:13px;}</style></defs><g id="Layer_2" data-name="Layer 2"><g id="Layer_1-2" data-name="Layer 1"><path class="cls-1" d="M48.64,19.08a9.19,9.19,0,0,0-9.14,9.14v36l-2-2.09-.76-.67A9,9,0,0,0,24,74.23v.09L48.93,99l.19.09.09.19a25.3,25.3,0,0,0,15.24,5.15h5.24a24.91,24.91,0,0,0,25-25V55.65a9.2,9.2,0,0,0-9.15-9.14,8.84,8.84,0,0,0-3.62.86,9.07,9.07,0,0,0-14.95-4.58,9.11,9.11,0,0,0-6.1-2.38,8.83,8.83,0,0,0-3,.58V28.22A9.19,9.19,0,0,0,48.64,19.08Zm0,6.09a3,3,0,0,1,3,3V61.75h6.1V49.56a3,3,0,1,1,6.09,0V61.75H70V49.56a3,3,0,1,1,6.09,0V61.75h6.38v-6.1a3.05,3.05,0,0,1,6.1,0V79.46A18.68,18.68,0,0,1,69.69,98.32H64.45a18.92,18.92,0,0,1-11.52-4L28.26,69.94a2.66,2.66,0,0,1,0-4.19,2.66,2.66,0,0,1,4.19,0L45.6,78.89V28.22A3,3,0,0,1,48.64,25.17Z"/><circle id="focus" class="cls-2" cx="62.43" cy="62.43" r="55.93"/></g></g></svg>