<svg xmlns="http://www.w3.org/2000/svg" viewBox="0 0 88.82 80.72"><defs><style>.cls-1{fill:#fff;}</style></defs><g id="Layer_2" data-name="Layer 2"><g id="Layer_1-2" data-name="Layer 1"><g id="redo"><path class="cls-1" d="M19.47,80.72a44.55,44.55,0,0,1-18.36-27,44.16,44.16,0,0,1-.5-17.12A37.39,37.39,0,0,1,7.49,20.34,35.25,35.25,0,0,1,22,9.33,44.08,44.08,0,0,1,40,6a49.46,49.46,0,0,1,18,3.89,51.73,51.73,0,0,1,15.6,10.27L63.38,29.79a38.58,38.58,0,0,0-10.72-8.86,37.83,37.83,0,0,0-13.43-4.46A34.5,34.5,0,0,0,25,17.55a27.38,27.38,0,0,0-12.14,7.27A31.2,31.2,0,0,0,5.74,37.76,39.49,39.49,0,0,0,4.56,53.14a42.33,42.33,0,0,0,4.75,15A44.29,44.29,0,0,0,19.47,80.72Z"/><path class="cls-1" d="M88.82,46.42c-13.33-6.54-31.6-13-45.74-14.34l22.71-9.93L76.88,0C77.48,14.19,83,32.77,88.82,46.42Z"/></g></g></g></svg>