<svg xmlns="http://www.w3.org/2000/svg" viewBox="0 0 102.32 102.32"><defs><style>.cls-1{fill:#f15a29;stroke-miterlimit:10;}.cls-1,.cls-2,.cls-3,.cls-4,.cls-5{stroke:#fff;}.cls-1,.cls-2,.cls-3{stroke-width:4px;}.cls-2,.cls-5{fill:none;}.cls-3,.cls-4{fill:#171517;}.cls-4{stroke-width:2px;}.cls-5{stroke-width:3px;}</style></defs><g id="Layer_2" data-name="Layer 2"><g id="Layer_1-2" data-name="Layer 1"><g id="rock"><rect class="cls-1" x="2" y="2" width="98.32" height="98.32" rx="12"/><g id="ammonites"><path class="cls-2" d="M28.73,18.41c-1.81-1.57-2.84-1.52-2.84-1.52a1.53,1.53,0,0,0-1.67.79A2.31,2.31,0,0,0,25,19.93s2.35,2.7,3.62,8.38,2.26,14.31,2.45,15.78a9.94,9.94,0,0,0,1.28,3.62s-12.35,6.81-8.24,21C29,85.54,46,89.7,54.7,88.57c8.23-1.07,23.81-5.87,29.2-27.43S73.32,21.84,58.57,17.63a49.19,49.19,0,0,0-29.89.83Z"/><path class="cls-3" d="M25,18.56l1.12.59c.2.14,5.64,3,7.16,12.34,1.57,9.56,2.59,12.79,3.33,15l.24.73.49,1.33c.59,1.61,1,4.21.59,4.4-.24.1-.49.25-.78,0-2-1-3-2.35-4.71-5.39l-1,.59c1.33,3,3.63,5.64,5.49,6.18a2,2,0,0,0,1.81-.25c1.47-1,.49-4-.49-6.71l-.39-1.18c-.73-2.15-1.86-5.49-3.52-14.89-1.72-10-7.11-11.91-7.75-12.2L25,18.56"/><path class="cls-4" d="M38.38,52.66,39,53.79C43.77,49.38,50,49,54.5,53a8.8,8.8,0,0,1,2.84,6.23,8,8,0,0,1-2.64,6,6.9,6.9,0,0,1-5,1.82,5.88,5.88,0,0,1-4.26-1.87,4.89,4.89,0,0,1-1.37-3.72,4.34,4.34,0,0,1,1.47-3.23,2.8,2.8,0,0,1,2.25-.89,2.13,2.13,0,0,1,1.62.74,1,1,0,0,1,.14,1c-.1.29-.24.73-.63.78l-.74.2a1.62,1.62,0,0,0,2.21-.49,2,2,0,0,0-.15-2,3.24,3.24,0,0,0-2.7-1.23,3.66,3.66,0,0,0-2.79,1.08,5.78,5.78,0,0,0-1.81,3.92,6.3,6.3,0,0,0,1.66,4.56,7.34,7.34,0,0,0,5,2.25,8.24,8.24,0,0,0,5.83-2.1,9.47,9.47,0,0,0,3.09-6.86,9.8,9.8,0,0,0-3.19-7.16c-4.9-4.41-11.76-4.26-17,.59"/><path class="cls-5" d="M39.36,52.66q.86,1.17,1.86,2.4c1,1.21,2,2.29,3,3.27m1.12-9.25A24.68,24.68,0,0,0,46,56.79m6.65-6.53a11.59,11.59,0,0,0-4,6.8M57.49,55a11.24,11.24,0,0,0-7.68,3.13m8.46,3a14.15,14.15,0,0,0-2.79-1.08,14.8,14.8,0,0,0-5.33-.43m3.71,7.63a10.84,10.84,0,0,0-.68-2.94,11.23,11.23,0,0,0-3.25-4.5m-2.68,7.39a6.37,6.37,0,0,0,1.32-1.66,7.37,7.37,0,0,0,.57-5.32m-5.12,3a4.54,4.54,0,0,0,2.57-.61,4.7,4.7,0,0,0,2-2.51M28.73,18.41l.15.15C30.49,20,33.24,23,35,29.14c.3,1,.49,2,.74,3.14,1.19,5.48,1.26,7.5,1.9,10.27A32.27,32.27,0,0,0,41,51m-.47-35a34.7,34.7,0,0,1,5.24,9.17,37.34,37.34,0,0,1,.53,24m12.8-31.25s4.16,4.61.29,16.32c-.5,1.5-1.16,3.16-2.41,6.12-1.79,4.27-3.43,7.73-4.58,10.08M75.42,28.55s1.33,5.39-5.93,14a71.82,71.82,0,0,1-6.72,6.64c-1.79,1.55-3.35,2.76-4.47,3.6L56.7,54M83.8,43.89s-1.62,6.61-11.07,10a55.42,55.42,0,0,1-7.06,2,33.56,33.56,0,0,0-3.5.76A23,23,0,0,0,58,58.34m25.9,2.8s-2.6,3.57-12.4,2.15a58.42,58.42,0,0,1-6.4-1.16c-.55-.14-1-.28-1.69-.43a24,24,0,0,0-5.14-.56m19.6,13.57A43.43,43.43,0,0,1,56.7,64.37m11.42,19.4A34.12,34.12,0,0,1,53.71,67m2,21.42s-3.43-3.14-4-10.63c0-.6-.08-2-.28-4.12-.23-2.43-.53-4.41-.76-5.72M43.53,87.35a50.22,50.22,0,0,1,3.07-20M33.78,82.7A30.28,30.28,0,0,1,44.92,65.8M26.28,74.27a15.63,15.63,0,0,1,5.34-7.74,16.09,16.09,0,0,1,11.62-3.08M23.63,59.67a16.14,16.14,0,0,1,7.55-2.5,20,20,0,0,1,12.09,3.25"/></g></g></g></g></svg>