<svg xmlns="http://www.w3.org/2000/svg" viewBox="0 0 102.32 102.32"><defs><style>.cls-1{fill:#f15a29;stroke:#fff;stroke-miterlimit:10;stroke-width:4px;}.cls-2{fill:#fff;}</style></defs><g id="Layer_2" data-name="Layer 2"><g id="Layer_1-2" data-name="Layer 1"><g id="rope"><rect class="cls-1" x="2" y="2" width="98.32" height="98.32" rx="12"/><path class="cls-2" d="M83.65,16.17a23.88,23.88,0,0,0-33.81,0l-4,4a7.95,7.95,0,0,0-11.38,6.75A8,8,0,0,0,27,34.4a8,8,0,0,0-6.75,11.39l-4,4A23.91,23.91,0,0,0,50.06,83.57l4-4a8,8,0,0,0,11.39-6.75,8,8,0,0,0,5.19-2.32,7.87,7.87,0,0,0,2.32-5.2A7.95,7.95,0,0,0,79.68,54l4-4A23.92,23.92,0,0,0,83.65,16.17ZM46.3,79.82A18.59,18.59,0,1,1,20,53.52l3.65-3.65,3.75,3.76-3.65,3.65A13.28,13.28,0,0,0,42.55,76.06l3.64-3.65L50,76.17Zm-15-11.27a2.66,2.66,0,0,0,3.75,0l3.65-3.65,3.76,3.75L38.79,72.3A8,8,0,0,1,27.52,61l3.65-3.65,3.76,3.76-3.65,3.65A2.66,2.66,0,0,0,31.28,68.55Zm28.06,5.74a2.64,2.64,0,0,1-3.75,0L25.53,44.23a2.66,2.66,0,0,1,3.76-3.75L59.34,70.53A2.66,2.66,0,0,1,59.34,74.29Zm7.52-7.52a2.66,2.66,0,0,1-3.76,0l-30.05-30A2.66,2.66,0,0,1,36.8,33L66.86,63A2.66,2.66,0,0,1,66.86,66.77Zm7.51-7.51a2.66,2.66,0,0,1-3.76,0l-30-30a2.66,2.66,0,1,1,3.76-3.76h0c.37.38,29.71,29.72,30.05,30.05A2.66,2.66,0,0,1,74.37,59.26ZM68.63,31.19a2.67,2.67,0,0,0-3.76,0l-3.65,3.65-3.75-3.75,3.64-3.65A8,8,0,1,1,72.38,38.71l-3.65,3.65L65,38.6,68.63,35A2.67,2.67,0,0,0,68.63,31.19Zm7.62,18.68-3.76-3.76,3.65-3.65A13.28,13.28,0,0,0,57.36,23.68l-3.65,3.65L50,23.57l3.65-3.65a18.6,18.6,0,0,1,26.3,26.3Z"/></g></g></g></svg>