<svg xmlns="http://www.w3.org/2000/svg" viewBox="0 0 110.56 110.56"><defs><style>.cls-1{fill:#ed1c24;}.cls-2,.cls-3,.cls-4{fill:none;stroke:#231f20;stroke-linecap:round;stroke-linejoin:round;}.cls-2{stroke-width:8px;}.cls-3{stroke-width:4px;}.cls-4{stroke-width:5px;}</style></defs><g id="Layer_2" data-name="Layer 2"><g id="other"><g id="rose"><path class="cls-1" d="M88.12,19.3a45.11,45.11,0,0,1,12.61,21.05L61.2,50.44Z"/><path class="cls-1" d="M88.23,22A43.37,43.37,0,0,1,98.43,39L78.56,44.11l-12.14,3.1,8.33-9.63L88.23,22M88,16.68q-16,18.5-32,37l47-12a47.16,47.16,0,0,0-15-25Z"/><path class="cls-1" d="M9.94,53.59a45.27,45.27,0,0,1,6-23.79L51,50.62Z"/><path class="cls-1" d="M16.61,32.36,34.25,42.82,45,49.21,29.94,50.3,11.77,51.62a43.43,43.43,0,0,1,4.84-19.26m-1.34-5.08A47,47,0,0,0,8.2,55.56L57,52,15.27,27.28Z"/><circle id="locate" class="cls-2" cx="55.28" cy="55.28" r="51.28"/><line class="cls-3" x1="56.28" y1="2.33" x2="56.28" y2="106.91"/><line class="cls-3" x1="4.97" y1="53.75" x2="107.97" y2="53.75"/><circle id="print" class="cls-4" cx="56.28" cy="52.75" r="16.87"/></g></g></g></svg>