<svg xmlns="http://www.w3.org/2000/svg" viewBox="0 0 102.32 102.32"><defs><style>.cls-1{fill:#f15a29;stroke:#fff;stroke-miterlimit:10;stroke-width:4px;}.cls-2{fill:#fff;}</style></defs><g id="Layer_2" data-name="Layer 2"><g id="Layer_1-2" data-name="Layer 1"><g id="sediment"><rect class="cls-1" x="2" y="2" width="98.32" height="98.32" rx="12"/><path class="cls-2" d="M20.42,29.22c9.65,0,9.67-15,0-15s-9.67,15,0,15Z"/><path class="cls-2" d="M53.16,20.27c9.66,0,9.67-15,0-15s-9.66,15,0,15Z"/><path class="cls-2" d="M39.74,41.63c9.65,0,9.67-15,0-15s-9.67,15,0,15Z"/><path class="cls-2" d="M71.88,56.47c9.65,0,9.66-15,0-15s-9.67,15,0,15Z"/><path class="cls-2" d="M65.37,41.42c9.65,0,9.67-15,0-15s-9.67,15,0,15Z"/><path class="cls-2" d="M84.49,22.3c9.65,0,9.66-15,0-15s-9.67,15,0,15Z"/><path class="cls-2" d="M50.52,69.49c9.65,0,9.67-15,0-15s-9.67,15,0,15Z"/><path class="cls-2" d="M24.08,60.54c9.65,0,9.67-15,0-15s-9.67,15,0,15Z"/><path class="cls-2" d="M25.71,93.29c9.65,0,9.66-15,0-15s-9.67,15,0,15Z"/><path class="cls-2" d="M74.93,94.71c9.65,0,9.66-15,0-15s-9.67,15,0,15Z"/><path class="cls-2" d="M81,74.17c9.65,0,9.67-15,0-15s-9.67,15,0,15Z"/><path class="cls-2" d="M53,91.66c9.65,0,9.67-15,0-15s-9.67,15,0,15Z"/></g></g></g></svg>