<svg xmlns="http://www.w3.org/2000/svg" viewBox="0 0 102.32 102.32"><defs><style>.cls-1{fill:#f15a29;}.cls-1,.cls-2{stroke:#fff;stroke-miterlimit:10;stroke-width:4px;}.cls-2{fill:#fff;}</style></defs><g id="Layer_2" data-name="Layer 2"><g id="Layer_1-2" data-name="Layer 1"><g id="speleothem"><rect class="cls-1" x="2" y="2" width="98.32" height="98.32" rx="12"/><path class="cls-2" d="M25.35,99.68A99.71,99.71,0,0,1,30,78c1.79-5.31,2.73-8,4.9-10.58,3.17-3.74,5.94-4.24,7.75-8.52.92-2.2.77-3.45,2.32-5.67.88-1.27,2.59-3.73,5.16-3.88s4.66,2.28,4.9,2.59c2.82,3.51.11,6.76,1.81,12.64,1.27,4.39,3,3.29,5.68,9.29,2.84,6.33,1.42,8.65,4.38,11.61,2.74,2.75,5.17,2,7,4.65s1.25,6.23.52,8.77"/><path class="cls-2" d="M36.19,2.65A46.8,46.8,0,0,1,39,16.32c.23,4.5-.36,7,1.55,9,2.05,2.25,5,1.85,6.71,4.91.93,1.62.64,2.64,1.55,3.09,1.63.82,4.87-1.29,6.71-3.87,2.89-4.06.68-7.07,2.06-14.45A33.34,33.34,0,0,1,62.26,2.9"/></g></g></g></svg>