<svg xmlns="http://www.w3.org/2000/svg" viewBox="0 0 102.44 102.32"><defs><style>.cls-1{fill:#f15a29;}.cls-1,.cls-2,.cls-3{stroke:#fff;stroke-miterlimit:10;}.cls-1,.cls-2{stroke-width:4px;}.cls-2,.cls-3{fill:#fff;}.cls-3{stroke-width:3.09px;}</style></defs><g id="Layer_2" data-name="Layer 2"><g id="Layer_1-2" data-name="Layer 1"><g id="squeeze"><rect class="cls-1" x="2.12" y="2" width="98.32" height="98.32" rx="12"/><path class="cls-2" d="M2,24.57A42.81,42.81,0,0,0,11.59,37,29.93,29.93,0,0,0,15,39.62c3.84,2.49,5.7,2.35,8.34,4.27s2.55,3.26,4.48,5.29c3.73,3.91,9.26,4.36,14,4.67,7.57.51,9.65-1.25,15.16-2.32a48.43,48.43,0,0,1,7-.73c3.76-.25,11-.74,17.34-3.4,2.52-1.06,9.52-4,14-11.44a26.49,26.49,0,0,0,3.66-13L98.23,9.31A9,9,0,0,0,96,5.45,10.12,10.12,0,0,0,88.06,2.8l-76.68,1a10.16,10.16,0,0,0-4.88,2,10.77,10.77,0,0,0-3.86,7.53Q2.33,19,2,24.57Z"/><path class="cls-3" d="M98.84,84.77a32.17,32.17,0,0,0-9.36-7.56A31,31,0,0,0,86.1,75.6c-3.76-1.52-5.58-1.43-8.17-2.6s-2.49-2-4.38-3.22c-3.65-2.39-9.06-2.66-13.74-2.85-9.88-.42-10.21,1.64-21.7,1.85-9.27.18-17.25-.48-17.32-.49h0c-7,0-11.9,7.38-13.34,9.54a27.64,27.64,0,0,0-3.58,7.93q.39,4.15.8,8.3a5.49,5.49,0,0,0,2.19,2.36c3,1.87,7.12,1.65,7.76,1.61l75.07-.62a13.68,13.68,0,0,0,4.78-1.24c3.37-1.65,3.73-4.13,3.78-4.58Z"/></g></g></g></svg>