<svg xmlns="http://www.w3.org/2000/svg" viewBox="0 0 88.82 80.72"><defs><style>.cls-1{fill:#fff;}</style></defs><g id="Layer_2" data-name="Layer 2"><g id="Layer_1-2" data-name="Layer 1"><g id="undo"><path class="cls-1" d="M69.35,80.72A44.22,44.22,0,0,0,79.5,68.2a42.46,42.46,0,0,0,4.76-15.06,39.71,39.71,0,0,0-1.18-15.38A31.1,31.1,0,0,0,76,24.83a27.4,27.4,0,0,0-12.14-7.28,34.5,34.5,0,0,0-14.22-1.08,38.15,38.15,0,0,0-13.44,4.46,38.9,38.9,0,0,0-10.72,8.86L15.28,20.15A51.81,51.81,0,0,1,30.87,9.88,49.29,49.29,0,0,1,48.87,6,44.1,44.1,0,0,1,66.81,9.33a35.31,35.31,0,0,1,14.51,11A37.26,37.26,0,0,1,88.2,36.62a43.79,43.79,0,0,1-.5,17.12,44.42,44.42,0,0,1-18.35,27Z"/><path class="cls-1" d="M0,46.42C5.83,32.77,11.33,14.19,11.93,0L23,22.16l22.7,9.92C31.6,33.42,13.32,39.88,0,46.42Z"/></g></g></g></svg>