<svg xmlns="http://www.w3.org/2000/svg" viewBox="0 0 103.32 103.32"><defs><style>.cls-1{fill:#f15a29;stroke-miterlimit:10;}.cls-1,.cls-2{stroke:#fff;stroke-width:5px;}.cls-2{fill:none;stroke-linejoin:round;}</style></defs><g id="Layer_2" data-name="Layer 2"><g id="Layer_1-2" data-name="Layer 1"><g id="wall"><rect class="cls-1" x="2.5" y="2.5" width="98.32" height="98.32" rx="12"/><line class="cls-2" x1="19.43" y1="20.31" x2="100.01" y2="20.31"/><line class="cls-2" x1="1.16" y1="20.31" x2="19.43" y2="20.31"/><line class="cls-2" x1="59.33" y1="40.31" x2="99.81" y2="40.31"/><line class="cls-2" x1="19.43" y1="40.31" x2="59.33" y2="40.31"/><line class="cls-2" x1="1.16" y1="40.31" x2="19.43" y2="40.31"/><line class="cls-2" x1="1.16" y1="60.31" x2="99.91" y2="60.31"/><line class="cls-2" x1="39.71" y1="80.31" x2="99.6" y2="80.31"/><line class="cls-2" x1="39.3" y1="80.31" x2="39.71" y2="80.31"/><line class="cls-2" x1="1.16" y1="80.31" x2="39.3" y2="80.31"/><line class="cls-2" x1="19.47" y1="80.41" x2="19.47" y2="98.82"/><line class="cls-2" x1="19.47" y1="40.1" x2="19.47" y2="60.43"/><line class="cls-2" x1="19.47" y1="1.8" x2="19.47" y2="20.69"/><line class="cls-2" x1="39.47" y1="60.79" x2="39.47" y2="80.87"/><line class="cls-2" x1="39.47" y1="20.01" x2="39.47" y2="40.24"/><line class="cls-2" x1="59.47" y1="80.18" x2="59.47" y2="98.82"/><line class="cls-2" x1="59.47" y1="40.31" x2="59.47" y2="60.7"/><line class="cls-2" x1="59.47" y1="1.8" x2="59.47" y2="20.31"/><line class="cls-2" x1="79.47" y1="60.2" x2="79.47" y2="80.67"/><line class="cls-2" x1="79.47" y1="19.44" x2="79.47" y2="40.45"/></g></g></g></svg>