<svg xmlns="http://www.w3.org/2000/svg" viewBox="0 0 143.68 143.68"><defs><style>.cls-1,.cls-2,.cls-3,.cls-4{fill:none;}.cls-1,.cls-2,.cls-4{stroke:#fff;}.cls-1{stroke-width:8.68px;}.cls-2{stroke-width:9.13px;}.cls-3,.cls-5{stroke:#010101;}.cls-3{stroke-width:8.91px;}.cls-4{stroke-width:0.46px;}.cls-5{fill:#fff;stroke-width:0.12px;}.cls-6{fill:#010101;}.cls-7{fill:#ed1c24;}</style></defs><g id="Layer_2" data-name="Layer 2"><g id="Layer_1-2" data-name="Layer 1"><g id="compass_rose"><g id="ring_inner"><circle class="cls-1" cx="71.84" cy="71.84" r="39"/><circle class="cls-2" cx="71.84" cy="71.84" r="41"/><circle class="cls-3" cx="71.84" cy="71.84" r="40"/></g><g id="major-rose-edge"><path id="highlight-north" class="cls-4" d="M71.84,71.84l11-11L71.84,0"/><path id="highlight-east" class="cls-4" d="M71.84,71.84l11,11,60.75-11"/><path id="highlight-south" class="cls-4" d="M71.84,71.84l-11,11,11,60.75"/><path id="highlight-west" class="cls-4" d="M71.84,71.84l-11-11L0,71.84"/></g><g id="minor-rose"><g id="light-minor"><path id="light-northeast" class="cls-5" d="M71.84,71.84,93.93,49.75,71.84,60.34"/><path id="light-southeast" class="cls-5" d="M71.84,71.84,93.93,93.93,83.35,71.84"/><path id="light-southwest" class="cls-5" d="M71.84,71.84,49.75,93.93,71.84,83.35"/><path id="light-northwest" class="cls-5" d="M71.84,71.84,49.75,49.75,60.34,71.84"/></g><g id="dark-minor"><path id="dark-northeast" class="cls-6" d="M71.84,71.84,93.93,49.75,83.35,71.84"/><path id="dark-southeast" class="cls-6" d="M71.84,71.84,93.93,93.93,71.84,83.35"/><path id="dark-southwest" class="cls-6" d="M71.84,71.84,49.75,93.93,60.34,71.84"/><path id="dark-northwest" class="cls-6" d="M71.84,71.84,49.75,49.75,71.84,60.34"/></g></g><g id="major-rose"><g id="light-major"><path id="light-north" class="cls-5" d="M71.84,71.84l-11-11L71.84,0"/><path id="light-east" class="cls-5" d="M71.84,71.84l11-11,60.75,11"/><path id="light-south" class="cls-5" d="M71.84,71.84l11,11-11,60.75"/><path id="light-west" class="cls-5" d="M71.84,71.84l-11,11L0,71.84"/></g><g id="dark-major"><path id="dark-north" class="cls-6" d="M71.84,71.84l11-11L71.84,0"/><path id="dark-east" class="cls-6" d="M71.84,71.84l11,11,60.75-11"/><path id="dark-south" class="cls-6" d="M71.84,71.84l-11,11,11,60.75"/><path id="dark-west" class="cls-6" d="M71.84,71.84l-11-11L0,71.84"/></g></g></g><path class="cls-7" d="M82.89,60.8l-11,11V0Q77.36,30.42,82.89,60.8Z"/></g></g></svg>